<?xml version="1.0" encoding="UTF-8"?>
<svg version="1.1" xmlns="http://www.w3.org/2000/svg" width="500" height="500">
<path d="M0 0 C-1.48154062 3.87220843 -3.47315873 5.1859963 -7 7.25 C-13.71624664 11.34849697 -19.65116724 16.18639125 -25.6640625 21.23828125 C-28 23 -28 23 -30 23 C-30 23.66 -30 24.32 -30 25 C-31.69274284 26.56432787 -33.45569852 28.05328572 -35.25 29.5 C-36.22453125 30.2940625 -37.1990625 31.088125 -38.203125 31.90625 C-40.44894762 33.58748034 -42.4465803 34.88135899 -45 36 C-45 36.66 -45 37.32 -45 38 C-45.66 38 -46.32 38 -47 38 C-47 38.66 -47 39.32 -47 40 C-47.66 40 -48.32 40 -49 40 C-49 40.66 -49 41.32 -49 42 C-50.36328125 43.33984375 -50.36328125 43.33984375 -52.3125 44.9375 C-56.57534743 48.5368989 -60.4615561 52.4186798 -64.31762695 56.44311523 C-65.50909296 57.66490714 -66.75093864 58.83715331 -68 60 C-68.66 60 -69.32 60 -70 60 C-70 60.66 -70 61.32 -70 62 C-70.66 62 -71.32 62 -72 62 C-72 62.66 -72 63.32 -72 64 C-73.65788785 65.34423339 -75.32576317 66.67618483 -77 68 C-77.556875 68.7425 -78.11375 69.485 -78.6875 70.25 C-79.120625 70.8275 -79.55375 71.405 -80 72 C-80.66 72 -81.32 72 -82 72 C-82.25450928 72.58120605 -82.50901855 73.16241211 -82.77124023 73.76123047 C-84.13058676 76.23792581 -85.63911097 77.85134445 -87.66015625 79.8203125 C-88.37107422 80.52027344 -89.08199219 81.22023438 -89.81445312 81.94140625 C-90.55630859 82.66199219 -91.29816406 83.38257813 -92.0625 84.125 C-93.53473193 85.56287561 -95.00489156 87.00287708 -96.47265625 88.4453125 C-97.12500244 89.07969238 -97.77734863 89.71407227 -98.44946289 90.36767578 C-100.08886 91.93459167 -100.08886 91.93459167 -101 94 C-101.66 94 -102.32 94 -103 94 C-103 94.66 -103 95.32 -103 96 C-103.66 96 -104.32 96 -105 96 C-105.23460937 96.56460938 -105.46921875 97.12921875 -105.7109375 97.7109375 C-107.30531947 100.54217336 -109.27040551 102.38704177 -111.625 104.625 C-115.98208839 108.86842521 -119.75745939 113.30399304 -123.40625 118.1640625 C-123.9321875 118.76992187 -124.458125 119.37578125 -125 120 C-125.66 120 -126.32 120 -127 120 C-127 120.66 -127 121.32 -127 122 C-127.66 122 -128.32 122 -129 122 C-129.22558594 122.54398437 -129.45117188 123.08796875 -129.68359375 123.6484375 C-131.41223787 126.73640119 -133.64550144 129.04454974 -136.0625 131.625 C-139.41533647 135.04209753 -139.41533647 135.04209753 -142 139 C-142.66 139 -143.32 139 -144 139 C-144.23589844 139.55558594 -144.47179687 140.11117187 -144.71484375 140.68359375 C-146.3127752 143.56375591 -148.305005 145.66369076 -150.5625 148.0625 C-156.23501788 154.19539615 -161.81771395 160.47459081 -166.62890625 167.31640625 C-167.08136719 167.87199219 -167.53382813 168.42757812 -168 169 C-168.66 169 -169.32 169 -170 169 C-170.28875 169.598125 -170.5775 170.19625 -170.875 170.8125 C-172 173 -172 173 -174 176 C-174.66 176 -175.32 176 -176 176 C-176.2578125 176.56203125 -176.515625 177.1240625 -176.78125 177.703125 C-178.14169777 180.26704579 -179.72788962 182.45226365 -181.5 184.75 C-182.1084375 185.54921875 -182.716875 186.3484375 -183.34375 187.171875 C-183.8903125 187.77515625 -184.436875 188.3784375 -185 189 C-185.66 189 -186.32 189 -187 189 C-187.2578125 189.56203125 -187.515625 190.1240625 -187.78125 190.703125 C-189.14169777 193.26704579 -190.72788962 195.45226365 -192.5 197.75 C-193.1084375 198.54921875 -193.716875 199.3484375 -194.34375 200.171875 C-194.8903125 200.77515625 -195.436875 201.3784375 -196 202 C-196.66 202 -197.32 202 -198 202 C-198 202.66 -198 203.32 -198 204 C-198.66 204 -199.32 204 -200 204 C-200 204.66 -200 205.32 -200 206 C-200.66 206 -201.32 206 -202 206 C-202 206.66 -202 207.32 -202 208 C-204.70586107 208.84558158 -206.23694065 209.30700659 -209 209 C-211.29860239 207.4860782 -213.14734455 205.78958297 -215.10546875 203.859375 C-216.96871464 201.93644158 -216.96871464 201.93644158 -219.23828125 200.390625 C-219.81964844 199.93171875 -220.40101563 199.4728125 -221 199 C-221 198.34 -221 197.68 -221 197 C-221.66 197 -222.32 197 -223 197 C-223 196.34 -223 195.68 -223 195 C-223.66 195 -224.32 195 -225 195 C-225 194.34 -225 193.68 -225 193 C-225.66 193 -226.32 193 -227 193 C-227 192.34 -227 191.68 -227 191 C-227.66 191 -228.32 191 -229 191 C-230.68732277 189.01739574 -232.35366057 187.0167658 -234 185 C-234.66 184.67 -235.32 184.34 -236 184 C-236 183.34 -236 182.68 -236 182 C-236.66 182 -237.32 182 -238 182 C-238 181.34 -238 180.68 -238 180 C-238.66 180 -239.32 180 -240 180 C-240 179.34 -240 178.68 -240 178 C-240.85078125 177.62875 -240.85078125 177.62875 -241.71875 177.25 C-245.21912089 175.33198855 -247.87451276 172.58264565 -250.78125 169.875 C-255.02836545 166.28588836 -258.27983901 165.54354839 -263.75 165.6875 C-267.33869577 166.18592997 -269.34389601 167.5968583 -272 170 C-274.48537061 173.44744956 -275.25155657 176.1387127 -275.0625 180.3125 C-273.37621931 190.67108138 -264.03059242 198.84940789 -257.35107422 206.45800781 C-256.27938062 207.68114059 -255.21792914 208.91324623 -254.16015625 210.1484375 C-249.72995085 215.31137407 -245.05987282 220.25240503 -240.40820312 225.21484375 C-237.0822207 228.76350088 -233.77515746 232.32693524 -230.50219727 235.92456055 C-219.49774068 249.41107106 -219.49774068 249.41107106 -204.375 256.4375 C-201.02033705 256.00263628 -198.14652291 255.22791138 -195 254 C-195 253.34 -195 252.68 -195 252 C-194.34 252 -193.68 252 -193 252 C-193 251.34 -193 250.68 -193 250 C-192.34 250 -191.68 250 -191 250 C-191 249.34 -191 248.68 -191 248 C-190.34 248 -189.68 248 -189 248 C-188.6596875 247.2265625 -188.6596875 247.2265625 -188.3125 246.4375 C-186.51782382 243.10452995 -184.50034985 239.85296329 -182 237 C-181.34 237 -180.68 237 -180 237 C-179.6596875 236.2265625 -179.6596875 236.2265625 -179.3125 235.4375 C-177.51782382 232.10452995 -175.50034985 228.85296329 -173 226 C-172.34 226 -171.68 226 -171 226 C-170.7525 225.278125 -170.505 224.55625 -170.25 223.8125 C-168.87730408 220.72393418 -167.27646704 218.48988582 -165 216 C-164.34 216 -163.68 216 -163 216 C-162.75121094 215.443125 -162.50242187 214.88625 -162.24609375 214.3125 C-160.78346393 211.5981525 -159.01508941 209.38528613 -157.0625 207 C-154.12976259 203.40998671 -154.12976259 203.40998671 -151.37109375 199.6875 C-150.91863281 199.130625 -150.46617187 198.57375 -150 198 C-149.34 198 -148.68 198 -148 198 C-147.75507813 197.27167969 -147.51015625 196.54335938 -147.2578125 195.79296875 C-145.85525932 192.67860377 -144.22086374 190.78505673 -141.875 188.3125 C-136.57644275 182.58937887 -131.71351535 176.59487368 -127.015625 170.37109375 C-126.39171875 169.54738281 -125.7678125 168.72367188 -125.125 167.875 C-124.57070313 167.12992188 -124.01640625 166.38484375 -123.4453125 165.6171875 C-122.96835937 165.08351562 -122.49140625 164.54984375 -122 164 C-121.34 164 -120.68 164 -120 164 C-119.7421875 163.43796875 -119.484375 162.8759375 -119.21875 162.296875 C-117.85830223 159.73295421 -116.27211038 157.54773635 -114.5 155.25 C-113.8915625 154.45078125 -113.283125 153.6515625 -112.65625 152.828125 C-112.1096875 152.22484375 -111.563125 151.6215625 -111 151 C-110.34 151 -109.68 151 -109 151 C-108.7421875 150.43796875 -108.484375 149.8759375 -108.21875 149.296875 C-106.85830223 146.73295421 -105.27211038 144.54773635 -103.5 142.25 C-102.8915625 141.45078125 -102.283125 140.6515625 -101.65625 139.828125 C-101.1096875 139.22484375 -100.563125 138.6215625 -100 138 C-99.34 138 -98.68 138 -98 138 C-97.76667969 137.44828125 -97.53335937 136.8965625 -97.29296875 136.328125 C-95.65980716 133.38744733 -93.60660793 131.20922749 -91.3125 128.75 C-88.31520384 125.51184489 -85.32945391 122.27071448 -82.4375 118.9375 C-66.98221085 101.19782631 -51.05606305 83.14815777 -33 68 C-32.08476562 67.195625 -31.16953125 66.39125 -30.2265625 65.5625 C-23.99809429 60.12217182 -17.55903511 55.098223 -10.8125 50.3125 C-10.06943604 49.78309814 -9.32637207 49.25369629 -8.56079102 48.70825195 C-7.86655029 48.22316162 -7.17230957 47.73807129 -6.45703125 47.23828125 C-5.83803955 46.80555908 -5.21904785 46.37283691 -4.58129883 45.92700195 C-3 45 -3 45 -1 45 C-1 44.34 -1 43.68 -1 43 C0.45537568 42.16151196 1.91440373 41.32936066 3.375 40.5 C4.18710937 40.0359375 4.99921875 39.571875 5.8359375 39.09375 C8 38 8 38 10 38 C9.67 39.32 9.34 40.64 9 42 C8.34 42 7.68 42 7 42 C7 42.66 7 43.32 7 44 C6.34 44 5.68 44 5 44 C4.77441406 44.5465625 4.54882812 45.093125 4.31640625 45.65625 C2.61310666 48.68883088 0.32971262 51.01108699 -2.0625 53.5 C-6.91714176 58.64200821 -11.1350963 64.03141974 -15.22265625 69.796875 C-15.80917969 70.52390625 -16.39570313 71.2509375 -17 72 C-17.66 72 -18.32 72 -19 72 C-19.27255615 72.59022949 -19.5451123 73.18045898 -19.82592773 73.78857422 C-20.9700715 75.94362812 -22.17942386 77.5558293 -23.78515625 79.3828125 C-24.31560547 79.99253906 -24.84605469 80.60226563 -25.39257812 81.23046875 C-25.94365234 81.85566406 -26.49472656 82.48085937 -27.0625 83.125 C-28.1593674 84.37601485 -29.25450394 85.62855005 -30.34765625 86.8828125 C-30.83242432 87.43340332 -31.31719238 87.98399414 -31.81665039 88.55126953 C-33.09633185 90.00977737 -33.09633185 90.00977737 -34 92 C-34.66 92 -35.32 92 -36 92 C-37.43329903 94.2764161 -38.06376443 95.51056492 -37.7109375 98.21875 C-36.86938604 101.5109733 -35.74601665 104.6271896 -34.5625 107.8125 C-24.56610246 135.4682396 -27.27616253 166.35096559 -39.5625 192.875 C-48.15608979 209.24689029 -60.70522325 223.34043637 -73.125 236.87890625 C-75.03475582 238.96526799 -75.03475582 238.96526799 -76.625 241.27734375 C-77.305625 242.13005859 -77.305625 242.13005859 -78 243 C-78.66 243 -79.32 243 -80 243 C-80.22751953 243.55218201 -80.45503906 244.10436401 -80.68945312 244.67327881 C-82.38578439 247.68491461 -84.52557169 249.78010415 -86.96875 252.22753906 C-87.47301514 252.73530884 -87.97728027 253.24307861 -88.49682617 253.76623535 C-90.15956536 255.43775439 -91.82948623 257.1018785 -93.5 258.765625 C-94.65849607 259.92546837 -95.81669512 261.0856085 -96.97460938 262.24603271 C-99.39910436 264.67347353 -101.82717362 267.09726634 -104.2578125 269.51855469 C-107.37863442 272.62795697 -110.49035864 275.74628512 -113.5994873 278.86737442 C-115.98756925 281.26266783 -118.38037493 283.65319644 -120.7746582 286.04228973 C-121.92442814 287.19072252 -123.07270602 288.34065105 -124.21948242 289.49207306 C-125.81862719 291.09627409 -127.4240025 292.69396192 -129.03125 294.29003906 C-129.94455078 295.20174866 -130.85785156 296.11345825 -131.79882812 297.05279541 C-134 299 -134 299 -136 299 C-136 299.66 -136 300.32 -136 301 C-137.22265625 302.26953125 -137.22265625 302.26953125 -139.0625 303.8125 C-141.89080461 306.20953831 -144.70675783 308.61480304 -147.484375 311.0703125 C-167.82362731 329 -167.82362731 329 -172 329 C-172 329.66 -172 330.32 -172 331 C-174.24756784 332.15082685 -176.49781748 333.29576858 -178.75 334.4375 C-179.70132813 334.92573242 -179.70132813 334.92573242 -180.671875 335.42382812 C-189.4636326 339.86549733 -198.94123793 340.66217011 -208.4375 337.5625 C-221.18959035 332.25527165 -231.84814186 323.20002479 -242.31298828 314.39599609 C-243.83269785 313.13844192 -245.39652544 311.93466637 -246.96484375 310.73828125 C-247.63644531 310.16464844 -248.30804688 309.59101563 -249 309 C-249 308.34 -249 307.68 -249 307 C-249.58523437 306.74347656 -250.17046875 306.48695313 -250.7734375 306.22265625 C-253.19234608 304.89437838 -254.73198872 303.43475199 -256.625 301.4375 C-259.04521959 298.85984611 -259.04521959 298.85984611 -262 297 C-262 296.34 -262 295.68 -262 295 C-262.58265625 294.7421875 -263.1653125 294.484375 -263.765625 294.21875 C-266.1802903 292.90165983 -267.81740177 291.44911616 -269.75 289.5 C-270.36359375 288.8915625 -270.9771875 288.283125 -271.609375 287.65625 C-273 286 -273 286 -273 284 C-273.54366211 283.78085937 -274.08732422 283.56171875 -274.64746094 283.3359375 C-277.77667207 281.55895085 -280.12685399 279.15895025 -282.640625 276.625 C-283.16767029 276.09986816 -283.69471558 275.57473633 -284.23773193 275.03369141 C-285.34616928 273.92661117 -286.45210046 272.8170167 -287.55566406 271.70507812 C-289.25106301 269.99893025 -290.9569161 268.30375953 -292.6640625 266.609375 C-293.74022558 265.53189108 -294.81576851 264.45378733 -295.890625 263.375 C-296.65925873 262.61243896 -296.65925873 262.61243896 -297.44342041 261.83447266 C-301 258.22994091 -301 258.22994091 -301 256 C-301.58265625 255.7421875 -302.1653125 255.484375 -302.765625 255.21875 C-305.1802903 253.90165983 -306.81740177 252.44911616 -308.75 250.5 C-309.36359375 249.8915625 -309.9771875 249.283125 -310.609375 248.65625 C-312 247 -312 247 -312 245 C-312.66 245 -313.32 245 -314 245 C-315.69140625 243.35546875 -315.69140625 243.35546875 -317.5625 241.1875 C-318.18253906 240.47980469 -318.80257812 239.77210938 -319.44140625 239.04296875 C-321 237 -321 237 -322 234 C-322.66 234 -323.32 234 -324 234 C-329 228.52380952 -329 228.52380952 -329 226 C-329.66 226 -330.32 226 -331 226 C-332.27758789 224.66162109 -332.27758789 224.66162109 -333.72265625 222.7734375 C-334.52425171 221.73014282 -334.52425171 221.73014282 -335.34204102 220.66577148 C-335.90979248 219.90981689 -336.47754395 219.1538623 -337.0625 218.375 C-337.64378662 217.60679932 -338.22507324 216.83859863 -338.82397461 216.04711914 C-358.10230169 190.30101837 -368.43887625 161.95790274 -364.6953125 129.34570312 C-362.27344025 112.82507459 -357.02211444 98.4956882 -347 85 C-346.360625 84.11441406 -345.72125 83.22882813 -345.0625 82.31640625 C-340.41789629 76.16417916 -335.25567621 71.47902677 -329 67 C-328.16855469 66.39285156 -327.33710938 65.78570312 -326.48046875 65.16015625 C-306.46612383 51.4471793 -282.40681888 48.82021091 -259 53 C-245.0783871 56.25164433 -232.35955445 62.38945773 -221 71 C-220.01 71.66 -219.02 72.32 -218 73 C-218 73.66 -218 74.32 -218 75 C-217.43796875 75.2371875 -216.8759375 75.474375 -216.296875 75.71875 C-213.48105958 77.28947697 -211.52044584 79.21471464 -209.25 81.5 C-208.05117188 82.69109375 -208.05117188 82.69109375 -206.828125 83.90625 C-205 86 -205 86 -205 88 C-204.34 88 -203.68 88 -203 88 C-198 93.47619048 -198 93.47619048 -198 96 C-197.54625 95.505 -197.0925 95.01 -196.625 94.5 C-195 93 -195 93 -193 93 C-192.566875 92.1028125 -192.566875 92.1028125 -192.125 91.1875 C-191 89 -191 89 -189 86 C-188.34 86 -187.68 86 -187 86 C-186.6596875 85.1646875 -186.6596875 85.1646875 -186.3125 84.3125 C-184.62449964 81.33840412 -182.53323483 79.27991135 -180 77 C-179.34 77 -178.68 77 -178 77 C-178 76.34 -178 75.68 -178 75 C-159.64189821 59.03969109 -135.41677523 49.45089946 -111 51 C-105.98425077 51.56923921 -100.99470487 52.26737198 -96 53 C-94.67977025 53.18937984 -93.35946073 53.37820469 -92.0390625 53.56640625 C-91.03617187 53.70949219 -90.03328125 53.85257813 -89 54 C-89 53.34 -89 52.68 -89 52 C-83.52380952 47 -83.52380952 47 -81 47 C-81 46.34 -81 45.68 -81 45 C-76.52941176 41 -76.52941176 41 -74 41 C-74 40.34 -74 39.68 -74 39 C-72.63330078 37.75415039 -72.63330078 37.75415039 -70.6953125 36.34765625 C-69.97585449 35.82389404 -69.25639648 35.30013184 -68.51513672 34.76049805 C-67.7263916 34.20015869 -66.93764648 33.63981934 -66.125 33.0625 C-64.90901123 32.19395386 -64.90901123 32.19395386 -63.66845703 31.30786133 C-47.5195011 19.90813959 -30.64015239 10.27449173 -12.25 3 C-11.1053125 2.54512207 -11.1053125 2.54512207 -9.9375 2.08105469 C-6.38498668 0.72170719 -3.84902615 0 0 0 Z " fill="#EF8C7D" transform="translate(439,78)"/>
<path d="M0 0 C-1.48154062 3.87220843 -3.47315873 5.1859963 -7 7.25 C-13.71624664 11.34849697 -19.65116724 16.18639125 -25.6640625 21.23828125 C-28 23 -28 23 -30 23 C-30 23.66 -30 24.32 -30 25 C-31.69274284 26.56432787 -33.45569852 28.05328572 -35.25 29.5 C-36.71179688 30.69109375 -36.71179688 30.69109375 -38.203125 31.90625 C-40.44894762 33.58748034 -42.4465803 34.88135899 -45 36 C-45 36.66 -45 37.32 -45 38 C-45.66 38 -46.32 38 -47 38 C-47 38.66 -47 39.32 -47 40 C-47.66 40 -48.32 40 -49 40 C-49 40.66 -49 41.32 -49 42 C-50.36328125 43.33984375 -50.36328125 43.33984375 -52.3125 44.9375 C-56.57534743 48.5368989 -60.4615561 52.4186798 -64.31762695 56.44311523 C-65.50909296 57.66490714 -66.75093864 58.83715331 -68 60 C-68.66 60 -69.32 60 -70 60 C-70 60.66 -70 61.32 -70 62 C-70.66 62 -71.32 62 -72 62 C-72 62.66 -72 63.32 -72 64 C-73.65788785 65.34423339 -75.32576317 66.67618483 -77 68 C-77.556875 68.7425 -78.11375 69.485 -78.6875 70.25 C-79.120625 70.8275 -79.55375 71.405 -80 72 C-80.66 72 -81.32 72 -82 72 C-82.38176392 72.87180908 -82.38176392 72.87180908 -82.77124023 73.76123047 C-84.13058676 76.23792581 -85.63911097 77.85134445 -87.66015625 79.8203125 C-88.37107422 80.52027344 -89.08199219 81.22023438 -89.81445312 81.94140625 C-90.55630859 82.66199219 -91.29816406 83.38257813 -92.0625 84.125 C-93.53473193 85.56287561 -95.00489156 87.00287708 -96.47265625 88.4453125 C-97.12500244 89.07969238 -97.77734863 89.71407227 -98.44946289 90.36767578 C-100.08886 91.93459167 -100.08886 91.93459167 -101 94 C-101.66 93.67 -102.32 93.34 -103 93 C-103 89 -103 89 -101.50390625 87.40234375 C-100.86324219 86.91894531 -100.22257812 86.43554688 -99.5625 85.9375 C-96.48666593 83.60758058 -96.48666593 83.60758058 -95 80 C-92 78 -92 78 -88 78 C-88.33 76.68 -88.66 75.36 -89 74 C-87.68 74 -86.36 74 -85 74 C-84.896875 73.360625 -84.79375 72.72125 -84.6875 72.0625 C-84.460625 71.381875 -84.23375 70.70125 -84 70 C-82.515 69.505 -82.515 69.505 -81 69 C-79.95355934 67.36209288 -78.9601817 65.68991979 -78 64 C-76 61.1875 -76 61.1875 -74 59 C-73.01 59 -72.02 59 -71 59 C-71 58.34 -71 57.68 -71 57 C-69.68 57 -68.36 57 -67 57 C-67.33 56.01 -67.66 55.02 -68 54 C-66.68 54 -65.36 54 -64 54 C-64 53.01 -64 52.02 -64 51 C-63.01 51 -62.02 51 -61 51 C-60.67 49.68 -60.34 48.36 -60 47 C-59.34 47 -58.68 47 -58 47 C-58 46.34 -58 45.68 -58 45 C-57.34 45 -56.68 45 -56 45 C-55.34 43.68 -54.68 42.36 -54 41 C-53.34 41 -52.68 41 -52 41 C-51.855625 40.2575 -51.71125 39.515 -51.5625 38.75 C-51.09812508 36.47972261 -50.58136431 34.24240521 -50 32 C-49.2575 32.05542969 -48.515 32.11085937 -47.75 32.16796875 C-44.55865963 31.97304313 -43.46412756 31.28479565 -41 29.3125 C-40.31679688 28.76722656 -39.63359375 28.22195312 -38.9296875 27.66015625 C-36.48656248 25.55827743 -34.21246209 23.34260692 -32 21 C-31.34 20.34 -30.68 19.68 -30 19 C-29.01 19 -28.02 19 -27 19 C-27.99 18.01 -27.99 18.01 -29 17 C-33.13035286 16.98494302 -33.13035286 16.98494302 -37 18 C-39.08632697 20.91841857 -39.08632697 20.91841857 -40 24 C-40.7425 23.95875 -41.485 23.9175 -42.25 23.875 C-46.21633419 24.05528792 -48.22157405 25.22157405 -51 28 C-51.99 28.66 -52.98 29.32 -54 30 C-53.505 32.475 -53.505 32.475 -53 35 C-53.66 35 -54.32 35 -55 35 C-55 34.34 -55 33.68 -55 33 C-59.05651388 33.52114935 -61.05772627 34.56323035 -64 37.375 C-66.87008445 40.01934747 -69.61632791 42.04103195 -73 44 C-76.58930242 46.69197681 -79.11098993 48.99972754 -81.5625 52.75 C-83.18410088 55.12042931 -83.73680331 55.88527324 -86.4375 57.0625 C-89.59113779 56.98558201 -92.07913505 56.15476056 -95 55 C-92.92446352 54.4465236 -91.15634036 54 -89 54 C-89 53.34 -89 52.68 -89 52 C-83.52380952 47 -83.52380952 47 -81 47 C-81 46.34 -81 45.68 -81 45 C-76.52941176 41 -76.52941176 41 -74 41 C-74 40.34 -74 39.68 -74 39 C-72.63330078 37.75415039 -72.63330078 37.75415039 -70.6953125 36.34765625 C-69.97585449 35.82389404 -69.25639648 35.30013184 -68.51513672 34.76049805 C-67.7263916 34.20015869 -66.93764648 33.63981934 -66.125 33.0625 C-64.90901123 32.19395386 -64.90901123 32.19395386 -63.66845703 31.30786133 C-47.5195011 19.90813959 -30.64015239 10.27449173 -12.25 3 C-11.1053125 2.54512207 -11.1053125 2.54512207 -9.9375 2.08105469 C-6.38498668 0.72170719 -3.84902615 0 0 0 Z " fill="#F1C1B8" transform="translate(439,78)"/>
<path d="M0 0 C-0.33 1.32 -0.66 2.64 -1 4 C-1.66 4 -2.32 4 -3 4 C-3 4.66 -3 5.32 -3 6 C-3.66 6 -4.32 6 -5 6 C-5.22558594 6.5465625 -5.45117188 7.093125 -5.68359375 7.65625 C-7.38689334 10.68883088 -9.67028738 13.01108699 -12.0625 15.5 C-16.91714176 20.64200821 -21.1350963 26.03141974 -25.22265625 31.796875 C-25.80917969 32.52390625 -26.39570313 33.2509375 -27 34 C-27.66 34 -28.32 34 -29 34 C-29.27328125 34.59022949 -29.5465625 35.18045898 -29.828125 35.78857422 C-30.96401931 37.93210143 -32.16529716 39.55582479 -33.75 41.3828125 C-34.2759375 41.99253906 -34.801875 42.60226563 -35.34375 43.23046875 C-35.8903125 43.85566406 -36.436875 44.48085937 -37 45.125 C-37.5465625 45.75792969 -38.093125 46.39085937 -38.65625 47.04296875 C-40.72066833 49.42615756 -42.76971884 51.76971884 -45 54 C-44.24793388 47.48209366 -44.24793388 47.48209366 -42.875 44.8125 C-41.77957388 42.98851338 -41.77957388 42.98851338 -42.375 40.75 C-42.58125 40.1725 -42.7875 39.595 -43 39 C-43.99 39.495 -43.99 39.495 -45 40 C-45.99 39.505 -45.99 39.505 -47 39 C-47.33 39.99 -47.66 40.98 -48 42 C-48.66 42 -49.32 42 -50 42 C-50.495 42.99 -50.495 42.99 -51 44 C-52.24233221 44.99500292 -53.51843964 45.94827031 -54.8125 46.875 C-57.12387316 48.56534585 -59.15780863 50.15780863 -61.1875 52.1875 C-63 54 -63 54 -65.5 55.4375 C-68.420809 57.26300562 -70.07910302 59.1542267 -72 62 C-72 62.99 -72 63.98 -72 65 C-73.485 65.495 -73.485 65.495 -75 66 C-74.34 66.33 -73.68 66.66 -73 67 C-73.4375 69.25 -73.4375 69.25 -75 72 C-77.86642925 73.68445543 -80.89170475 74.83706885 -84 76 C-85.010625 76.4125 -86.02125 76.825 -87.0625 77.25 C-87.701875 77.4975 -88.34125 77.745 -89 78 C-85.9872656 72.79618604 -82.048189 68.91765109 -77.73046875 64.7578125 C-75.61946723 62.62567076 -73.6579808 60.48354871 -71.703125 58.21484375 C-67.84484992 53.76053241 -63.73932854 49.59177141 -59.5625 45.4375 C-58.85029297 44.72142578 -58.13808594 44.00535156 -57.40429688 43.26757812 C-52.76676352 38.63846899 -47.97301066 34.26436486 -43 30 C-41.99011802 29.1115486 -40.98094291 28.22229274 -39.97265625 27.33203125 C-33.80500403 21.99225181 -27.46819166 17.03378228 -20.8125 12.3125 C-20.06943604 11.78309814 -19.32637207 11.25369629 -18.56079102 10.70825195 C-17.86655029 10.22316162 -17.17230957 9.73807129 -16.45703125 9.23828125 C-15.5285437 8.589198 -15.5285437 8.589198 -14.58129883 7.92700195 C-13 7 -13 7 -11 7 C-11 6.34 -11 5.68 -11 5 C-9.54462432 4.16151196 -8.08559627 3.32936066 -6.625 2.5 C-5.81289063 2.0359375 -5.00078125 1.571875 -4.1640625 1.09375 C-2 0 -2 0 0 0 Z " fill="#F2A293" transform="translate(449,116)"/>
<path d="M0 0 C1.134375 0.020625 2.26875 0.04125 3.4375 0.0625 C3.4375 1.0525 3.4375 2.0425 3.4375 3.0625 C1.7875 3.7225 0.1375 4.3825 -1.5625 5.0625 C-1.5625 5.7225 -1.5625 6.3825 -1.5625 7.0625 C-3.109375 7.0315625 -3.109375 7.0315625 -4.6875 7 C-9.70917189 7.02184885 -9.70917189 7.02184885 -14.5625 8.0625 C-16.49719849 11.01321844 -16.49719849 11.01321844 -17.5625 14.0625 C-18.305 14.02125 -19.0475 13.98 -19.8125 13.9375 C-23.77883419 14.11778792 -25.78407405 15.28407405 -28.5625 18.0625 C-29.5525 18.7225 -30.5425 19.3825 -31.5625 20.0625 C-31.0675 22.5375 -31.0675 22.5375 -30.5625 25.0625 C-31.2225 25.0625 -31.8825 25.0625 -32.5625 25.0625 C-32.5625 24.4025 -32.5625 23.7425 -32.5625 23.0625 C-36.61901388 23.58364935 -38.62022627 24.62573035 -41.5625 27.4375 C-44.43258445 30.08184747 -47.17882791 32.10353195 -50.5625 34.0625 C-54.15180242 36.75447681 -56.67348993 39.06222754 -59.125 42.8125 C-60.74660088 45.18292931 -61.29930331 45.94777324 -64 47.125 C-67.15363779 47.04808201 -69.64163505 46.21726056 -72.5625 45.0625 C-70.48696352 44.5090236 -68.71884036 44.0625 -66.5625 44.0625 C-66.5625 43.4025 -66.5625 42.7425 -66.5625 42.0625 C-61.08630952 37.0625 -61.08630952 37.0625 -58.5625 37.0625 C-58.5625 36.4025 -58.5625 35.7425 -58.5625 35.0625 C-54.09191176 31.0625 -54.09191176 31.0625 -51.5625 31.0625 C-51.5625 30.4025 -51.5625 29.7425 -51.5625 29.0625 C-50.19580078 27.81665039 -50.19580078 27.81665039 -48.2578125 26.41015625 C-47.17717529 25.62378784 -47.17717529 25.62378784 -46.07470703 24.8215332 C-45.28692871 24.26167725 -44.49915039 23.70182129 -43.6875 23.125 C-42.88554199 22.55031982 -42.08358398 21.97563965 -41.25732422 21.38354492 C-17.85582318 4.82476128 -17.85582318 4.82476128 -4.5625 1.0625 C-3.5625 0.0625 -3.5625 0.0625 0 0 Z " fill="#EFA89D" transform="translate(416.5625,87.9375)"/>
<path d="M0 0 C0.99 0 1.98 0 3 0 C3 0.66 3 1.32 3 2 C3.99 2.33 4.98 2.66 6 3 C6 3.99 6 4.98 6 6 C8.76276177 5.47731534 11.3260876 4.89130413 14 4 C15.20882096 1.99983534 15.20882096 1.99983534 16 0 C17.01321573 2.01738489 18.01809796 4.03746843 19 6.0703125 C19.33 6.74835938 19.66 7.42640625 20 8.125 C20.33 8.80820312 20.66 9.49140625 21 10.1953125 C21.98532608 12.16918065 21.98532608 12.16918065 24 14 C24.125 16.625 24.125 16.625 24 19 C24.99 19.33 25.98 19.66 27 20 C27 21.32 27 22.64 27 24 C27.66 24 28.32 24 29 24 C32.0900669 27.93281242 33.52583422 31.02125936 34 36 C25.63371151 28.94975689 25.63371151 28.94975689 23 26 C23 25.34 23 24.68 23 24 C22.41734375 23.7421875 21.8346875 23.484375 21.234375 23.21875 C18.8197097 21.90165983 17.18259823 20.44911616 15.25 18.5 C14.32960937 17.58734375 14.32960937 17.58734375 13.390625 16.65625 C12 15 12 15 12 13 C11.34 13 10.68 13 10 13 C8.30859375 11.35546875 8.30859375 11.35546875 6.4375 9.1875 C5.81746094 8.47980469 5.19742188 7.77210938 4.55859375 7.04296875 C3 5 3 5 2 2 C1.34 2 0.68 2 0 2 C0 1.34 0 0.68 0 0 Z " fill="#F19E93" transform="translate(115,310)"/>
<path d="M0 0 C-1.48154062 3.87220843 -3.47315873 5.1859963 -7 7.25 C-13.71624664 11.34849697 -19.65116724 16.18639125 -25.6640625 21.23828125 C-28 23 -28 23 -30 23 C-30 23.66 -30 24.32 -30 25 C-30.99 25.33 -31.98 25.66 -33 26 C-32.25 21.25 -32.25 21.25 -30 19 C-29.01 19 -28.02 19 -27 19 C-27 18.34 -27 17.68 -27 17 C-26.01 17 -25.02 17 -24 17 C-24 16.34 -24 15.68 -24 15 C-22.37373596 13.61767557 -20.7074998 12.28062485 -19 11 C-22.41656024 10.83322718 -22.41656024 10.83322718 -26 11 C-26.66 11.66 -27.32 12.32 -28 13 C-30.125 12.625 -30.125 12.625 -32 12 C-25.73285449 8.5829885 -19.25783205 5.80130246 -12.625 3.1875 C-11.84012207 2.87353271 -11.05524414 2.55956543 -10.24658203 2.23608398 C-9.49747559 1.94548096 -8.74836914 1.65487793 -7.9765625 1.35546875 C-7.30705566 1.09403076 -6.63754883 0.83259277 -5.94775391 0.56323242 C-4 0 -4 0 0 0 Z " fill="#F3C4BB" transform="translate(439,78)"/>
<path d="M0 0 C0 0.33 0 0.66 0 1 C-0.89195068 0.98428955 -1.78390137 0.9685791 -2.70288086 0.95239258 C-6.05206259 0.90088008 -9.40081566 0.86346553 -12.75024414 0.83520508 C-14.19236955 0.82023492 -15.63445036 0.79985132 -17.07641602 0.77368164 C-27.85242861 0.56621441 -27.85242861 0.56621441 -38.21704102 3.28930664 C-40.60404286 4.24077349 -42.95727145 4.51820271 -45.5 4.8125 C-50.58052094 5.64979256 -53.81825717 7.50953902 -57.921875 10.54296875 C-59.91184979 11.93819544 -61.74860442 12.85767858 -64 13.75 C-67.10176976 14.6588563 -67.10176976 14.6588563 -68 17 C-70.32156597 17.40729228 -72.6568787 17.74438677 -75 18 C-56.46364239 -2.34920432 -25.13037667 -3.70830328 0 0 Z " fill="#F1CBC2" transform="translate(343,131)"/>
<path d="M0 0 C0.33 0 0.66 0 1 0 C0.98428955 1.28575928 0.9685791 2.57151855 0.95239258 3.89624023 C0.89780098 8.69891006 0.86354406 13.50155283 0.83520508 18.30444336 C0.82018479 20.37708154 0.79976253 22.44968829 0.77368164 24.5222168 C0.73699976 27.51358836 0.72020565 30.5045371 0.70703125 33.49609375 C0.69154739 34.41208847 0.67606354 35.32808319 0.66011047 36.27183533 C0.65872144 41.66774058 1.37034102 46.03814857 3.32543945 51.07971191 C4.27253354 53.77582792 4.29521794 56.22592763 4.1875 59.0625 C4.14689453 60.47208984 4.14689453 60.47208984 4.10546875 61.91015625 C4.07066406 62.59980469 4.03585938 63.28945313 4 64 C-5.46505481 49.80241778 -4.98544928 24.44182088 -1.92260742 8.18920898 C-1.34285261 5.44316063 -0.70127761 2.71745075 0 0 Z " fill="#E09B8C" transform="translate(77,195)"/>
<path d="M0 0 C0.99 0 1.98 0 3 0 C2.70787534 3.50549595 2.33552852 4.70861997 -0.375 7.0625 C-1.674375 8.0215625 -1.674375 8.0215625 -3 9 C-3.556875 9.7425 -4.11375 10.485 -4.6875 11.25 C-5.120625 11.8275 -5.55375 12.405 -6 13 C-6.66 13 -7.32 13 -8 13 C-8.25450928 13.58120605 -8.50901855 14.16241211 -8.77124023 14.76123047 C-10.13058676 17.23792581 -11.63911097 18.85134445 -13.66015625 20.8203125 C-14.37107422 21.52027344 -15.08199219 22.22023437 -15.81445312 22.94140625 C-16.55630859 23.66199219 -17.29816406 24.38257813 -18.0625 25.125 C-19.53473193 26.56287561 -21.00489156 28.00287708 -22.47265625 29.4453125 C-23.45117554 30.39688232 -23.45117554 30.39688232 -24.44946289 31.36767578 C-26.08886 32.93459167 -26.08886 32.93459167 -27 35 C-27.66 34.67 -28.32 34.34 -29 34 C-29 30 -29 30 -27.50390625 28.40234375 C-26.86324219 27.91894531 -26.22257812 27.43554688 -25.5625 26.9375 C-22.48666593 24.60758058 -22.48666593 24.60758058 -21 21 C-18 19 -18 19 -14 19 C-14.33 17.68 -14.66 16.36 -15 15 C-13.68 15 -12.36 15 -11 15 C-10.896875 14.360625 -10.79375 13.72125 -10.6875 13.0625 C-10.3471875 12.0415625 -10.3471875 12.0415625 -10 11 C-9.01 10.67 -8.02 10.34 -7 10 C-5.95355934 8.36209288 -4.9601817 6.68991979 -4 5 C-2 2.1875 -2 2.1875 0 0 Z " fill="#F1C3BC" transform="translate(365,137)"/>
<path d="M0 0 C0.99 0.33 1.98 0.66 3 1 C3 1.66 3 2.32 3 3 C2.34 3 1.68 3 1 3 C0.7421875 3.56203125 0.484375 4.1240625 0.21875 4.703125 C-1.14169777 7.26704579 -2.72788962 9.45226365 -4.5 11.75 C-5.41265625 12.94882812 -5.41265625 12.94882812 -6.34375 14.171875 C-6.8903125 14.77515625 -7.436875 15.3784375 -8 16 C-8.66 16 -9.32 16 -10 16 C-10 16.66 -10 17.32 -10 18 C-10.66 18 -11.32 18 -12 18 C-12 18.66 -12 19.32 -12 20 C-12.66 20 -13.32 20 -14 20 C-14 20.66 -14 21.32 -14 22 C-16.70586107 22.84558158 -18.23694065 23.30700659 -21 23 C-23.29860239 21.4860782 -25.14734455 19.78958297 -27.10546875 17.859375 C-28.96871464 15.93644158 -28.96871464 15.93644158 -31.23828125 14.390625 C-31.81964844 13.93171875 -32.40101563 13.4728125 -33 13 C-33 12.34 -33 11.68 -33 11 C-33.66 11 -34.32 11 -35 11 C-34.67 10.34 -34.34 9.68 -34 9 C-32.125 9.25 -32.125 9.25 -30 10 C-29.71125 10.598125 -29.4225 11.19625 -29.125 11.8125 C-28.05676124 14.32912505 -28.05676124 14.32912505 -24.875 16.0625 C-23.92625 16.701875 -22.9775 17.34125 -22 18 C-22 18.99 -22 19.98 -22 21 C-20.02 21 -18.04 21 -16 21 C-16 20.01 -16 19.02 -16 18 C-13.5 15.5 -13.5 15.5 -11 13 C-11 12.01 -11 11.02 -11 10 C-10.071875 9.62875 -9.14375 9.2575 -8.1875 8.875 C-4.44607029 6.674159 -3.69556421 4.89979768 -2 1 C-1.34 0.67 -0.68 0.34 0 0 Z " fill="#F1C5BF" transform="translate(251,264)"/>
<path d="M0 0 C1.91342142 2.87013213 2.66982908 4.84408384 3.5625 8.125 C3.81128906 9.01445312 4.06007813 9.90390625 4.31640625 10.8203125 C7.87213199 27.35951682 7.69917559 46.72533223 3 63 C2.34 63.99 1.68 64.98 1 66 C1.14033111 64.02043559 1.2874123 62.04134859 1.4375 60.0625 C1.51871094 58.96035156 1.59992188 57.85820312 1.68359375 56.72265625 C2 54 2 54 3 53 C3.10046613 50.72965513 3.1308169 48.45615954 3.1328125 46.18359375 C3.13376923 45.49370865 3.13472595 44.80382355 3.13571167 44.09303284 C3.13639396 42.62606719 3.13453632 41.15909856 3.13037109 39.69213867 C3.12508009 37.47111996 3.13028462 35.25030878 3.13671875 33.02929688 C3.13605687 31.60156206 3.13477343 30.17382737 3.1328125 28.74609375 C3.13168457 27.45372803 3.13055664 26.1613623 3.12939453 24.82983398 C2.99372543 20.81428466 2.55608045 16.97622372 2 13 C1.34 13 0.68 13 0 13 C0 8.71 0 4.42 0 0 Z " fill="#EFC6BF" transform="translate(404,187)"/>
<path d="M0 0 C-0.33 1.32 -0.66 2.64 -1 4 C-1.66 4 -2.32 4 -3 4 C-3 4.66 -3 5.32 -3 6 C-3.66 6 -4.32 6 -5 6 C-5.33837891 6.81210938 -5.33837891 6.81210938 -5.68359375 7.640625 C-7.40391048 10.72392265 -9.67642873 13.17830791 -12.0625 15.75 C-12.52205078 16.25660156 -12.98160156 16.76320312 -13.45507812 17.28515625 C-14.61242575 18.54617231 -15.80350187 19.77606893 -17 21 C-17.33 21 -17.66 21 -18 21 C-18 19.35 -18 17.7 -18 16 C-17.34 15.67 -16.68 15.34 -16 15 C-16 14.34 -16 13.68 -16 13 C-17.32 12.67 -18.64 12.34 -20 12 C-18.87926138 11.16094435 -17.75325453 10.32892169 -16.625 9.5 C-15.99851562 9.0359375 -15.37203125 8.571875 -14.7265625 8.09375 C-13 7 -13 7 -11 7 C-11 6.34 -11 5.68 -11 5 C-9.54462432 4.16151196 -8.08559627 3.32936066 -6.625 2.5 C-5.40683594 1.80390625 -5.40683594 1.80390625 -4.1640625 1.09375 C-2 0 -2 0 0 0 Z " fill="#F1C4BB" transform="translate(449,116)"/>
<path d="M0 0 C0.33 0.99 0.66 1.98 1 3 C0.01 3.33 -0.98 3.66 -2 4 C-1.896875 4.886875 -1.79375 5.77375 -1.6875 6.6875 C-2.09498572 11.00684858 -3.7722703 12.25642975 -7 15 C-7 13.68 -7 12.36 -7 11 C-6.34 11 -5.68 11 -5 11 C-5 10.01 -5 9.02 -5 8 C-5.99 8.33 -6.98 8.66 -8 9 C-8.66 9 -9.32 9 -10 9 C-12.04076536 10.52394816 -13.97809885 12.14893839 -15.9296875 13.78515625 C-18 15 -18 15 -20.2578125 14.68359375 C-20.83273437 14.45800781 -21.40765625 14.23242188 -22 14 C-20.08435828 12.39459585 -18.16753088 10.790645 -16.25 9.1875 C-15.71117187 8.73568359 -15.17234375 8.28386719 -14.6171875 7.81835938 C-6.08585349 0.69157426 -6.08585349 0.69157426 0 0 Z " fill="#F1B9AF" transform="translate(433,128)"/>
<path d="M0 0 C1.485 0.495 1.485 0.495 3 1 C-0.23256976 4.28190459 -3.47157606 7.55726457 -6.71679688 10.82666016 C-7.82049298 11.94043123 -8.92238973 13.05598832 -10.02246094 14.17333984 C-11.60145074 15.77651237 -13.18674114 17.37320911 -14.7734375 18.96875 C-15.26621185 19.47184692 -15.75898621 19.97494385 -16.26669312 20.49328613 C-17.473756 21.70074513 -18.73278596 22.85582929 -20 24 C-20.66 24 -21.32 24 -22 24 C-22 24.66 -22 25.32 -22 26 C-23.75 27.7265625 -23.75 27.7265625 -26 29.625 C-27.11375 30.57246094 -27.11375 30.57246094 -28.25 31.5390625 C-28.8275 32.02117187 -29.405 32.50328125 -30 33 C-30.33 32.01 -30.66 31.02 -31 30 C-30.34 30 -29.68 30 -29 30 C-28.773125 29.443125 -28.54625 28.88625 -28.3125 28.3125 C-26.61382022 25.31958801 -24.57927313 23.26472763 -22 21 C-21.01 21 -20.02 21 -19 21 C-18.87625 20.21625 -18.7525 19.4325 -18.625 18.625 C-18 16 -18 16 -16 14 C-15.01 14 -14.02 14 -13 14 C-13 13.34 -13 12.68 -13 12 C-12.01 12 -11.02 12 -10 12 C-9.9175 11.4225 -9.835 10.845 -9.75 10.25 C-8.7924861 7.3774583 -7.18571625 6.04910899 -5 4 C-4.67 3.34 -4.34 2.68 -4 2 C-3.01 2.33 -2.02 2.66 -1 3 C-0.67 2.01 -0.34 1.02 0 0 Z " fill="#EFB9B4" transform="translate(325,353)"/>
<path d="M0 0 C0 3 0 3 -1.71484375 4.97265625 C-2.44832031 5.66230469 -3.18179687 6.35195313 -3.9375 7.0625 C-6.86434414 9.73700793 -6.86434414 9.73700793 -9 13 C-9.66 13 -10.32 13 -11 13 C-11.21398437 13.54140625 -11.42796875 14.0828125 -11.6484375 14.640625 C-13.48077943 17.8392797 -15.99796606 20.20964484 -18.625 22.75 C-19.140625 23.25660156 -19.65625 23.76320313 -20.1875 24.28515625 C-21.45383339 25.52803902 -22.7263144 26.76465276 -24 28 C-26.046875 24.28125 -26.046875 24.28125 -25.625 21.75 C-25.41875 21.1725 -25.2125 20.595 -25 20 C-22.69 20 -20.38 20 -18 20 C-17.67 18.35 -17.34 16.7 -17 15 C-16.01 14.67 -15.02 14.34 -14 14 C-14 13.34 -14 12.68 -14 12 C-13.401875 11.566875 -12.80375 11.13375 -12.1875 10.6875 C-9.85297467 9.12359576 -9.85297467 9.12359576 -8.6875 6.5625 C-6.3496922 3.01249556 -3.76418523 1.9176038 0 0 Z " fill="#EEB4AC" transform="translate(370,308)"/>
<path d="M0 0 C0.93423645 3.01031744 1.04449911 3.86650268 0 7 C-0.99 7.33 -1.98 7.66 -3 8 C-4.23950042 10.09138456 -4.23950042 10.09138456 -5.1875 12.5625 C-5.53167969 13.38878906 -5.87585938 14.21507812 -6.23046875 15.06640625 C-6.48441406 15.70449219 -6.73835938 16.34257812 -7 17 C-6.34 17.33 -5.68 17.66 -5 18 C-7.31 18.33 -9.62 18.66 -12 19 C-12.3403125 20.1446875 -12.3403125 20.1446875 -12.6875 21.3125 C-14.28096179 24.5753027 -15.76338336 25.46260709 -19 27 C-19.66 27 -20.32 27 -21 27 C-21 26.34 -21 25.68 -21 25 C-20.34 25 -19.68 25 -19 25 C-18.6596875 24.2265625 -18.6596875 24.2265625 -18.3125 23.4375 C-16.51782382 20.10452995 -14.50034985 16.85296329 -12 14 C-11.34 14 -10.68 14 -10 14 C-9.773125 13.484375 -9.54625 12.96875 -9.3125 12.4375 C-7.51782382 9.10452995 -5.50034985 5.85296329 -3 3 C-2.34 3 -1.68 3 -1 3 C-0.67 2.01 -0.34 1.02 0 0 Z " fill="#E2857C" transform="translate(269,301)"/>
<path d="M0 0 C0.99 0.66 1.98 1.32 3 2 C3.1875 4.625 3.1875 4.625 3 7 C3.99 7.33 4.98 7.66 6 8 C6 9.32 6 10.64 6 12 C6.66 12 7.32 12 8 12 C11.0900669 15.93281242 12.52583422 19.02125936 13 24 C10.64956414 22.01929563 8.32177196 20.01418678 6 18 C5.175 17.29875 4.35 16.5975 3.5 15.875 C3.005 15.25625 2.51 14.6375 2 14 C2.25 11.75 2.25 11.75 3 10 C2.34 10 1.68 10 1 10 C-0.625 7.25 -0.625 7.25 -2 4 C-1.1875 1.625 -1.1875 1.625 0 0 Z " fill="#F2998C" transform="translate(136,322)"/>
<path d="M0 0 C0.66 0.99 1.32 1.98 2 3 C0.88266271 4.50571657 -0.24410035 6.00444292 -1.375 7.5 C-2.00148438 8.3353125 -2.62796875 9.170625 -3.2734375 10.03125 C-3.84320313 10.6809375 -4.41296875 11.330625 -5 12 C-5.66 12 -6.32 12 -7 12 C-7 13.32 -7 14.64 -7 16 C-7.639375 16.185625 -8.27875 16.37125 -8.9375 16.5625 C-11.37339708 17.90393163 -11.37339708 17.90393163 -11.625 21.25 C-11.74875 22.4875 -11.8725 23.725 -12 25 C-12.62256028 27.01416562 -13.27566653 29.02015519 -14 31 C-14.66 31 -15.32 31 -16 31 C-16.12375 31.61875 -16.2475 32.2375 -16.375 32.875 C-17 35 -17 35 -19 37 C-16.97084173 22.68909432 -9.47034664 10.65413997 0 0 Z " fill="#E6B1A5" transform="translate(97,157)"/>
<path d="M0 0 C0.66 0.33 1.32 0.66 2 1 C2 1.99 2 2.98 2 4 C1.01 4.33 0.02 4.66 -1 5 C-0.34 5.33 0.32 5.66 1 6 C0.5625 8.25 0.5625 8.25 -1 11 C-3.86642925 12.68445543 -6.89170475 13.83706885 -10 15 C-11.010625 15.4125 -12.02125 15.825 -13.0625 16.25 C-13.701875 16.4975 -14.34125 16.745 -15 17 C-12.17621696 12.46850055 -9.08293633 8.82715373 -5.25 5.125 C-4.74339844 4.62742188 -4.23679687 4.12984375 -3.71484375 3.6171875 C-2.48114693 2.40676798 -1.24122216 1.20270147 0 0 Z " fill="#ED9F93" transform="translate(375,177)"/>
<path d="M0 0 C0 0.33 0 0.66 0 1 C-2.64 1 -5.28 1 -8 1 C-8.495 -0.485 -8.495 -0.485 -9 -2 C-13.29 -2 -17.58 -2 -22 -2 C-22 -2.33 -22 -2.66 -22 -3 C-31.9 -3 -41.8 -3 -52 -3 C-52 -3.33 -52 -3.66 -52 -4 C-33.67982464 -6.70337238 -17.77376192 -6.17435912 0 0 Z " fill="#F1CEC6" transform="translate(193,135)"/>
<path d="M0 0 C0.33 0 0.66 0 1 0 C1.02886984 3.97915159 1.04675406 7.95827653 1.0625 11.9375 C1.07087891 13.07380859 1.07925781 14.21011719 1.08789062 15.38085938 C1.09111328 16.46044922 1.09433594 17.54003906 1.09765625 18.65234375 C1.10289307 19.65257568 1.10812988 20.65280762 1.11352539 21.68334961 C1 24 1 24 0 25 C-0.21335739 26.75544547 -0.42098869 28.51182128 -0.59619141 30.27148438 C-1.34230308 37.74270642 -2.63108934 44.19676294 -6 51 C-6.33 51 -6.66 51 -7 51 C-6.67 46.71 -6.34 42.42 -6 38 C-5.67 38 -5.34 38 -5 38 C-4.87625 36.989375 -4.7525 35.97875 -4.625 34.9375 C-3.86021831 30.11937537 -2.54008721 25.62026162 -1 21 C-0.95524382 19.50066785 -0.9610521 17.99949427 -1 16.5 C-1.06546198 10.95209717 -0.58688415 5.51251894 0 0 Z " fill="#EAA194" transform="translate(407,216)"/>
<path d="M0 0 C-1.49890837 4.03552254 -3.80429152 5.40573481 -7.4375 7.5625 C-10.65143947 9.48401641 -13.49016646 11.20089751 -16 14 C-16.66 13.67 -17.32 13.34 -18 13 C-17.34 12.01 -16.68 11.02 -16 10 C-15.34 10 -14.68 10 -14 10 C-14 9.34 -14 8.68 -14 8 C-16.64 8 -19.28 8 -22 8 C-18.67733065 5.7848871 -15.24712816 4.35167744 -11.5625 2.875 C-10.89412109 2.59785156 -10.22574219 2.32070312 -9.53710938 2.03515625 C-6.08942725 0.64788277 -3.77146196 0 0 0 Z " fill="#F1CDC6" transform="translate(439,78)"/>
<path d="M0 0 C0 4.0234866 -1.76191846 5.70870362 -4 9 C-4.309375 9.845625 -4.61875 10.69125 -4.9375 11.5625 C-6.33356173 14.76522984 -8.45332727 16.65438038 -11 19 C-11.66 18.67 -12.32 18.34 -13 18 C-13.0825 18.598125 -13.165 19.19625 -13.25 19.8125 C-14.20455872 22.5966296 -15.57132271 23.43311142 -18 25 C-18.66 24.67 -19.32 24.34 -20 24 C-19.50371094 23.38253906 -19.00742187 22.76507813 -18.49609375 22.12890625 C-17.81675781 21.28199219 -17.13742187 20.43507813 -16.4375 19.5625 C-15.71175781 18.65886719 -14.98601562 17.75523437 -14.23828125 16.82421875 C-11.57834208 13.46796042 -9.00139452 10.05303729 -6.4453125 6.6171875 C-5.72988281 5.81667969 -5.72988281 5.81667969 -5 5 C-4.34 5 -3.68 5 -3 5 C-2.690625 4.360625 -2.38125 3.72125 -2.0625 3.0625 C-1 1 -1 1 0 0 Z " fill="#E78F84" transform="translate(322,237)"/>
<path d="M0 0 C1.73926758 -0.01836914 1.73926758 -0.01836914 3.51367188 -0.03710938 C17.93868284 -0.06171144 17.93868284 -0.06171144 24.3125 4.1875 C20.35390323 5.28711021 18.87881805 5.02469415 15.3125 3.1875 C12.14554044 3.02025263 12.14554044 3.02025263 9.3125 3.1875 C9.3125 2.5275 9.3125 1.8675 9.3125 1.1875 C8.508125 1.5175 7.70375 1.8475 6.875 2.1875 C2.06362787 3.5380606 -2.87193339 3.9206098 -7.7578125 2.6484375 C-10.545542 1.9825426 -12.9142368 2.62024162 -15.6875 3.1875 C-15.6875 2.5275 -15.6875 1.8675 -15.6875 1.1875 C-10.61793633 -0.50235456 -5.30699485 0.00290158 0 0 Z " fill="#EC9D8D" transform="translate(324.6875,130.8125)"/>
<path d="M0 0 C0.66 0.99 1.32 1.98 2 3 C-3.8722608 11.50803547 -9.84998297 19.50457152 -17 27 C-17.33 25.68 -17.66 24.36 -18 23 C-17.01 23 -16.02 23 -15 23 C-15 21.68 -15 20.36 -15 19 C-13.68 18.67 -12.36 18.34 -11 18 C-11 17.01 -11 16.02 -11 15 C-10.34 15 -9.68 15 -9 15 C-8.34 13.68 -7.68 12.36 -7 11 C-6.34 11 -5.68 11 -5 11 C-5 10.01 -5 9.02 -5 8 C-4.34 8 -3.68 8 -3 8 C-3 6.35 -3 4.7 -3 3 C-2.34 3 -1.68 3 -1 3 C-0.67 2.01 -0.34 1.02 0 0 Z " fill="#EFBFB7" transform="translate(389,281)"/>
<path d="M0 0 C7.21004251 5.82939607 13.53686291 12.4968307 19 20 C17.35 20.33 15.7 20.66 14 21 C13.67 20.34 13.34 19.68 13 19 C12.34 19 11.68 19 11 19 C11 17.68 11 16.36 11 15 C10.01 15.33 9.02 15.66 8 16 C8.33 15.01 8.66 14.02 9 13 C8.01 13 7.02 13 6 13 C5.7525 11.9275 5.505 10.855 5.25 9.75 C3.98470426 5.95411278 2.8930687 4.60376183 0 2 C0 1.34 0 0.68 0 0 Z " fill="#E49186" transform="translate(198,304)"/>
<path d="M0 0 C3.98671063 1.36687222 6.88494633 3.15195093 10 6 C10 6.66 10 7.32 10 8 C10.56203125 8.2371875 11.1240625 8.474375 11.703125 8.71875 C14.51894042 10.28947697 16.47955416 12.21471464 18.75 14.5 C19.54921875 15.2940625 20.3484375 16.088125 21.171875 16.90625 C23 19 23 19 23 21 C23.66 21 24.32 21 25 21 C24.67 21.66 24.34 22.32 24 23 C23.5875 22.54625 23.175 22.0925 22.75 21.625 C20.91772993 19.92360636 19.25180453 19.05553338 17 18 C14 16 14 16 12.5625 13 C10.8993828 9.80681499 10.20368275 9.2814731 7 8 C6.67 7.34 6.34 6.68 6 6 C5.175 5.525625 4.35 5.05125 3.5 4.5625 C1 3 1 3 0 0 Z " fill="#F0C4BA" transform="translate(211,145)"/>
<path d="M0 0 C0.99 0.33 1.98 0.66 3 1 C-0.71754802 5.52134218 -4.64047364 9.77415761 -8.75 13.9375 C-9.23380127 14.43419189 -9.71760254 14.93088379 -10.21606445 15.44262695 C-11.43848364 16.66847329 -12.71551743 17.83934827 -14 19 C-14.66 19 -15.32 19 -16 19 C-16 19.66 -16 20.32 -16 21 C-16.66 20.67 -17.32 20.34 -18 20 C-17.67 18.68 -17.34 17.36 -17 16 C-15.68 16 -14.36 16 -13 16 C-13.33 15.01 -13.66 14.02 -14 13 C-12.68 13 -11.36 13 -10 13 C-10 12.01 -10 11.02 -10 10 C-9.01 10 -8.02 10 -7 10 C-6.67 8.68 -6.34 7.36 -6 6 C-5.34 6 -4.68 6 -4 6 C-4 5.34 -4 4.68 -4 4 C-3.34 4 -2.68 4 -2 4 C-1.34 2.68 -0.68 1.36 0 0 Z " fill="#EFC4BC" transform="translate(385,119)"/>
<path d="M0 0 C1.134375 0.020625 2.26875 0.04125 3.4375 0.0625 C3.4375 1.0525 3.4375 2.0425 3.4375 3.0625 C1.7875 3.7225 0.1375 4.3825 -1.5625 5.0625 C-1.5625 5.7225 -1.5625 6.3825 -1.5625 7.0625 C-4.5325 7.0625 -7.5025 7.0625 -10.5625 7.0625 C-10.2325 5.7425 -9.9025 4.4225 -9.5625 3.0625 C-7.0625 1.875 -7.0625 1.875 -4.5625 1.0625 C-3.5625 0.0625 -3.5625 0.0625 0 0 Z M-12.5625 7.0625 C-10.5625 8.0625 -10.5625 8.0625 -10.5625 8.0625 Z " fill="#F5A799" transform="translate(416.5625,87.9375)"/>
<path d="M0 0 C2.75026417 -0.05404449 5.49946203 -0.09369306 8.25 -0.125 C9.02730469 -0.14175781 9.80460938 -0.15851563 10.60546875 -0.17578125 C17.72431144 -0.23662606 17.72431144 -0.23662606 21 2 C17.25 3.125 17.25 3.125 15 2 C10.35695813 1.43354889 6.87486883 1.57876686 2.625 3.625 C-0.2285309 6.20676605 -1.55179868 8.45995232 -3 12 C-3.33 12 -3.66 12 -4 12 C-4 9.03 -4 6.06 -4 3 C-2.68 2.67 -1.36 2.34 0 2 C0 1.34 0 0.68 0 0 Z " fill="#ECADA7" transform="translate(167,242)"/>
<path d="M0 0 C0.99 0.33 1.98 0.66 3 1 C-1.95 5.95 -6.9 10.9 -12 16 C-12.33 15.01 -12.66 14.02 -13 13 C-12.01 12.67 -11.02 12.34 -10 12 C-10 11.01 -10 10.02 -10 9 C-9.34 9 -8.68 9 -8 9 C-7.938125 8.236875 -7.87625 7.47375 -7.8125 6.6875 C-7 4 -7 4 -4.5625 2.25 C-3.716875 1.8375 -2.87125 1.425 -2 1 C-1.34 0.67 -0.68 0.34 0 0 Z " fill="#EFA398" transform="translate(342,336)"/>
<path d="M0 0 C0.99 0.33 1.98 0.66 3 1 C2.01 2.485 2.01 2.485 1 4 C0.34 4 -0.32 4 -1 4 C-1 4.66 -1 5.32 -1 6 C-0.34 6.33 0.32 6.66 1 7 C-3.625 11 -3.625 11 -7 11 C-7.33 11.99 -7.66 12.98 -8 14 C-8.66 13.01 -9.32 12.02 -10 11 C-7.90336901 7.02743602 -5.69924405 4.56101511 -2 2 C-1.34 2 -0.68 2 0 2 C0 1.34 0 0.68 0 0 Z " fill="#E2786C" transform="translate(279,293)"/>
<path d="M0 0 C0.66 0.33 1.32 0.66 2 1 C0.8125 3.9375 0.8125 3.9375 -1 7 C-3.5 7.8125 -3.5 7.8125 -6 8 C-6.99 8.33 -7.98 8.66 -9 9 C-9.33 9.99 -9.66 10.98 -10 12 C-11.95597184 13.39712274 -13.95436401 14.73779907 -16 16 C-16.66 15.67 -17.32 15.34 -18 15 C-12.47383125 9.30637159 -6.71018807 4.25524121 0 0 Z " fill="#E8A89C" transform="translate(116,141)"/>
<path d="M0 0 C0.33 0.66 0.66 1.32 1 2 C-0.93637547 6.08790378 -3.44806133 8.28930996 -7 11 C-7.33 11.66 -7.66 12.32 -8 13 C-8.763125 13.45375 -9.52625 13.9075 -10.3125 14.375 C-12.98394547 15.99029261 -14.88209504 17.72521319 -17 20 C-17.66 19.67 -18.32 19.34 -19 19 C-12.73 12.73 -6.46 6.46 0 0 Z " fill="#F2CEC8" transform="translate(394,157)"/>
<path d="M0 0 C0.5775 0.226875 1.155 0.45375 1.75 0.6875 C1.75 1.6775 1.75 2.6675 1.75 3.6875 C1.09 3.6875 0.43 3.6875 -0.25 3.6875 C-0.58 5.0075 -0.91 6.3275 -1.25 7.6875 C-1.58 7.3575 -1.91 7.0275 -2.25 6.6875 C-2.58 7.6775 -2.91 8.6675 -3.25 9.6875 C-6.8125 11.375 -6.8125 11.375 -10.25 12.6875 C-10.25 10.6875 -10.25 10.6875 -8.875 9.125 C-7.25 7.6875 -7.25 7.6875 -5.25 6.6875 C-5.58 5.3675 -5.91 4.0475 -6.25 2.6875 C-2.80384615 -0.38942308 -2.80384615 -0.38942308 0 0 Z " fill="#F3A192" transform="translate(426.25,135.3125)"/>
<path d="M0 0 C-0.33 1.32 -0.66 2.64 -1 4 C-1.66 4 -2.32 4 -3 4 C-3 4.66 -3 5.32 -3 6 C-3.66 6 -4.32 6 -5 6 C-5.268125 6.61875 -5.53625 7.2375 -5.8125 7.875 C-7 10 -7 10 -10 12 C-10 11.01 -10 10.02 -10 9 C-10.99 8.67 -11.98 8.34 -13 8 C-12.34 7.67 -11.68 7.34 -11 7 C-11 6.34 -11 5.68 -11 5 C-9.54462432 4.16151196 -8.08559627 3.32936066 -6.625 2.5 C-5.81289063 2.0359375 -5.00078125 1.571875 -4.1640625 1.09375 C-2 0 -2 0 0 0 Z " fill="#ECC5BA" transform="translate(449,116)"/>
<path d="M0 0 C3.36704285 -0.2295711 5.41370268 -0.33943529 8.375 1.375 C8.91125 1.91125 9.4475 2.4475 10 3 C10 3.66 10 4.32 10 5 C10.556875 5.103125 11.11375 5.20625 11.6875 5.3125 C14.47129258 6.14011401 16.59851873 7.37737752 19 9 C19.33 9.66 19.66 10.32 20 11 C12.46997792 8.90146926 6.3250039 5.6107505 0 1 C0 0.67 0 0.34 0 0 Z " fill="#EAA8A2" transform="translate(214,405)"/>
<path d="M0 0 C0.66 0.33 1.32 0.66 2 1 C0.73046875 2.46484375 -0.5390625 3.9296875 -1.80859375 5.39453125 C-3.20871231 7.10712971 -3.20871231 7.10712971 -4 10 C-6.06640625 11.38671875 -6.06640625 11.38671875 -8.5625 12.6875 C-9.80193359 13.34298828 -9.80193359 13.34298828 -11.06640625 14.01171875 C-11.70449219 14.33785156 -12.34257812 14.66398438 -13 15 C-13 12 -13 12 -11.7578125 10.39453125 C-11.21898437 9.87246094 -10.68015625 9.35039062 -10.125 8.8125 C-9.59132813 8.28269531 -9.05765625 7.75289062 -8.5078125 7.20703125 C-7 6 -7 6 -5 6 C-5 5.34 -5 4.68 -5 4 C-3.37373596 2.61767557 -1.7074998 1.28062485 0 0 Z " fill="#ECB4A8" transform="translate(266,149)"/>
<path d="M0 0 C4.88049925 3.9419417 9.0580583 8.11950075 13 13 C12.01 13.33 11.02 13.66 10 14 C9.67 12.68 9.34 11.36 9 10 C8.38125 10.20625 7.7625 10.4125 7.125 10.625 C6.42375 10.74875 5.7225 10.8725 5 11 C4.34 10.34 3.68 9.68 3 9 C3.33 8.34 3.66 7.68 4 7 C3.01 6.67 2.02 6.34 1 6 C0.67 4.02 0.34 2.04 0 0 Z " fill="#E7A39A" transform="translate(183,288)"/>
<path d="M0 0 C0.99 0 1.98 0 3 0 C3 0.99 3 1.98 3 3 C3.66 3.33 4.32 3.66 5 4 C9 9.52941176 9 9.52941176 9 12 C9.99 12 10.98 12 12 12 C12 12.99 12 13.98 12 15 C13.9375006 17.18777466 13.9375006 17.18777466 16 19 C15.67 19.99 15.34 20.98 15 22 C11 16.66666667 7 11.33333333 3 6 C2.16722534 4.95150879 2.16722534 4.95150879 1.31762695 3.88183594 C0 2 0 2 0 0 Z " fill="#EBB8B1" transform="translate(90,278)"/>
<path d="M0 0 C0.66 0.33 1.32 0.66 2 1 C0.625 3.5 0.625 3.5 -1 6 C-1.66 6 -2.32 6 -3 6 C-3.08378906 6.61230469 -3.16757812 7.22460938 -3.25390625 7.85546875 C-4 10 -4 10 -5.77734375 11.30078125 C-6.49019531 11.63464844 -7.20304687 11.96851563 -7.9375 12.3125 C-8.64777344 12.65925781 -9.35804688 13.00601563 -10.08984375 13.36328125 C-11.03537109 13.67845703 -11.03537109 13.67845703 -12 14 C-12.66 13.67 -13.32 13.34 -14 13 C-13.07316406 12.14535156 -12.14632813 11.29070312 -11.19140625 10.41015625 C-9.98176077 9.29428174 -8.7721259 8.17839573 -7.5625 7.0625 C-6.64500977 6.21655273 -6.64500977 6.21655273 -5.70898438 5.35351562 C-5.12568359 4.81533203 -4.54238281 4.27714844 -3.94140625 3.72265625 C-3.40201416 3.22515869 -2.86262207 2.72766113 -2.30688477 2.21508789 C-1.52614632 1.48918929 -0.75381738 0.75381738 0 0 Z " fill="#F5D1CB" transform="translate(409,143)"/>
<path d="M0 0 C0.99 0.33 1.98 0.66 3 1 C2.01 1.33 1.02 1.66 0 2 C0.33 3.65 0.66 5.3 1 7 C-0.32 7.33 -1.64 7.66 -3 8 C-3 8.66 -3 9.32 -3 10 C-4.96875 11.5078125 -4.96875 11.5078125 -7.5 13.125 C-8.3353125 13.66382813 -9.170625 14.20265625 -10.03125 14.7578125 C-10.6809375 15.16773438 -11.330625 15.57765625 -12 16 C-10.79618552 13.50638429 -9.54571278 11.31856917 -8 9 C-7.34 9 -6.68 9 -6 9 C-5.7525 8.443125 -5.505 7.88625 -5.25 7.3125 C-3.78393985 4.60028873 -1.97010529 2.36412635 0 0 Z " fill="#E8A9A3" transform="translate(282,285)"/>
<path d="M0 0 C2.5648901 1.09923861 3.95059119 1.94000359 5.75 4.125 C9.12838846 6.94032371 11.690745 6.28728367 16 6 C15.67 8.64 15.34 11.28 15 14 C13.68 13.34 12.36 12.68 11 12 C11 11.34 11 10.68 11 10 C10.41734375 9.74347656 9.8346875 9.48695313 9.234375 9.22265625 C6.80289161 7.89214174 5.18264447 6.41556987 3.25 4.4375 C2.63640625 3.81746094 2.0228125 3.19742187 1.390625 2.55859375 C0 1 0 1 0 0 Z " fill="#EEB0A9" transform="translate(166,363)"/>
<path d="M0 0 C5.55555556 1.35802469 5.55555556 1.35802469 7.6875 4.4375 C8.120625 5.283125 8.55375 6.12875 9 7 C9.8353125 7.7425 9.8353125 7.7425 10.6875 8.5 C12 10 12 10 12.1875 12.6875 C12.125625 13.450625 12.06375 14.21375 12 15 C11.01 15 10.02 15 9 15 C9.33 14.01 9.66 13.02 10 12 C8.68798827 10.43750191 8.68798827 10.43750191 7 9 C6.01 9 5.02 9 4 9 C3.67 7.02 3.34 5.04 3 3 C2.01 3 1.02 3 0 3 C0 2.01 0 1.02 0 0 Z " fill="#E07F72" transform="translate(192,301)"/>
<path d="M0 0 C0.33 0 0.66 0 1 0 C1.05506505 1.52040718 1.09326375 3.04142704 1.125 4.5625 C1.14820312 5.40941406 1.17140625 6.25632813 1.1953125 7.12890625 C1 10 1 10 0.03125 13.21875 C-1.22714673 17.83287135 -1.45127954 22.17828333 -1.625 26.9375 C-1.66367188 27.81212891 -1.70234375 28.68675781 -1.7421875 29.58789062 C-1.8356107 31.72494631 -1.91885398 33.86244294 -2 36 C-2.33 36 -2.66 36 -3 36 C-3.35003688 23.57638329 -3.1179213 12.08194504 0 0 Z " fill="#F2D4CB" transform="translate(77,195)"/>
<path d="M0 0 C-1.16470825 5.30589313 -3.57897699 7.91905568 -7.44140625 11.484375 C-9.10513896 12.9357317 -9.10513896 12.9357317 -10 15 C-10.66 14.67 -11.32 14.34 -12 14 C-12 10 -12 10 -10.50390625 8.40234375 C-9.86324219 7.91894531 -9.22257812 7.43554688 -8.5625 6.9375 C-5.48666593 4.60758058 -5.48666593 4.60758058 -4 1 C-2 0 -2 0 0 0 Z " fill="#ECAFA6" transform="translate(348,157)"/>
<path d="M0 0 C0.66 0 1.32 0 2 0 C4.81552726 6.78743178 5.3689719 12.68889006 5 20 C1.18964906 14.28447359 -0.55570361 6.8536779 0 0 Z " fill="#EAB3A9" transform="translate(76,239)"/>
<path d="M0 0 C-3.07074703 3.55560182 -6.64410445 4.54803482 -11 6 C-11.33 6.66 -11.66 7.32 -12 8 C-13.66666667 8 -15.33333333 8 -17 8 C-12.30529741 2.73624256 -7.28356777 -0.66214252 0 0 Z " fill="#F39786" transform="translate(300,135)"/>
<path d="M0 0 C-2.71468997 2.71468997 -5.606776 2.9016849 -9.25 3.5625 C-9.90613281 3.68818359 -10.56226563 3.81386719 -11.23828125 3.94335938 C-15.1495107 4.68594866 -19.07092621 5.35939014 -23 6 C-17.102283 0.102283 -7.90537582 -0.61733954 0 0 Z " fill="#EFC4BA" transform="translate(309,132)"/>
<path d="M0 0 C0.33 1.32 0.66 2.64 1 4 C-3.75 7 -3.75 7 -6 7 C-6.20625 7.61875 -6.4125 8.2375 -6.625 8.875 C-8.54775888 11.84653645 -10.66594527 12.13024659 -14 13 C-13.07347299 11.82460004 -12.13336613 10.65989423 -11.1875 9.5 C-10.66542969 8.8503125 -10.14335937 8.200625 -9.60546875 7.53125 C-8 6 -8 6 -5 6 C-4.67 5.01 -4.34 4.02 -4 3 C-1.9375 1.3125 -1.9375 1.3125 0 0 Z " fill="#EE9D93" transform="translate(391,164)"/>
<path d="M0 0 C5.58731943 2.08155038 10.19121158 4.38242317 13 10 C11.296875 10.76953125 11.296875 10.76953125 9 11 C6.640625 9.19921875 6.640625 9.19921875 4.25 6.6875 C3.45078125 5.86636719 2.6515625 5.04523438 1.828125 4.19921875 C0 2 0 2 0 0 Z " fill="#F1C2BD" transform="translate(127,323)"/>
<path d="M0 0 C0.99 0.33 1.98 0.66 3 1 C2.34 1.66 1.68 2.32 1 3 C1.21784412 5.2717496 1.21784412 5.2717496 2 8 C2.35467676 9.43737423 2.70882008 10.87488017 3.0625 12.3125 C3.371875 13.529375 3.68125 14.74625 4 16 C3.01 16 2.02 16 1 16 C-0.91302307 12.73386305 -1.35674661 10.00554752 -1.625 6.25 C-1.69976562 5.26515625 -1.77453125 4.2803125 -1.8515625 3.265625 C-1.90054687 2.51796875 -1.94953125 1.7703125 -2 1 C-1.34 0.67 -0.68 0.34 0 0 Z " fill="#F0BCB6" transform="translate(400,171)"/>
<path d="M0 0 C0.99 0.33 1.98 0.66 3 1 C-0.96 4.96 -4.92 8.92 -9 13 C-9.33 11.68 -9.66 10.36 -10 9 C-7.625 6.375 -7.625 6.375 -5 4 C-4.67 3.34 -4.34 2.68 -4 2 C-3.01 2.33 -2.02 2.66 -1 3 C-0.67 2.01 -0.34 1.02 0 0 Z " fill="#EEABA1" transform="translate(325,353)"/>
<path d="M0 0 C0.99 0.33 1.98 0.66 3 1 C1.51194289 6.80342274 -1.59097555 11.17590879 -5 16 C-6.45169732 13.09660535 -5.72348441 11.09125158 -5 8 C-4.34 7.67 -3.68 7.34 -3 7 C-1.94647157 4.69034152 -0.94280904 2.3570226 0 0 Z " fill="#EEBDB6" transform="translate(397,267)"/>
<path d="M0 0 C0.99 0 1.98 0 3 0 C3 0.66 3 1.32 3 2 C3.99 2.33 4.98 2.66 6 3 C6 3.99 6 4.98 6 6 C7.32 6 8.64 6 10 6 C10 6.99 10 7.98 10 9 C10.99 9.66 11.98 10.32 13 11 C12.67 11.66 12.34 12.32 12 13 C10 13 10 13 8.30859375 11.35546875 C7.69113281 10.64003906 7.07367188 9.92460937 6.4375 9.1875 C5.81746094 8.47980469 5.19742188 7.77210938 4.55859375 7.04296875 C3 5 3 5 2 2 C1.34 2 0.68 2 0 2 C0 1.34 0 0.68 0 0 Z " fill="#EBB7AE" transform="translate(115,310)"/>
<path d="M0 0 C1.32 0.33 2.64 0.66 4 1 C3.67 3.31 3.34 5.62 3 8 C2.34 8 1.68 8 1 8 C1 8.66 1 9.32 1 10 C0.01 10 -0.98 10 -2 10 C-1.46274105 6.62294375 -0.88935377 3.303314 0 0 Z " fill="#F2B4A9" transform="translate(389,110)"/>
<path d="M0 0 C2.97 0.495 2.97 0.495 6 1 C6 1.99 6 2.98 6 4 C6.66 4 7.32 4 8 4 C8 4.66 8 5.32 8 6 C8.66 6 9.32 6 10 6 C10.33 7.65 10.66 9.3 11 11 C6.86378916 7.6189962 3.18683431 4.33409466 0 0 Z M8 3 C10 4 10 4 10 4 Z " fill="#E7A59B" transform="translate(154,351)"/>
<path d="M0 0 C1.98 0.66 3.96 1.32 6 2 C6 2.66 6 3.32 6 4 C7.32 4.33 8.64 4.66 10 5 C10.33 6.98 10.66 8.96 11 11 C6.86378916 7.6189962 3.18683431 4.33409466 0 0 Z " fill="#EFB8AE" transform="translate(138,335)"/>
<path d="M0 0 C0.66 0 1.32 0 2 0 C2 0.99 2 1.98 2 3 C2.66 3 3.32 3 4 3 C4.1953125 9.0546875 4.1953125 9.0546875 4 11 C3.34 11.66 2.68 12.32 2 13 C-1.62870159 4.738041 -1.62870159 4.738041 0 0 Z " fill="#EAA49B" transform="translate(82,256)"/>
<path d="M0 0 C2.97 0.495 2.97 0.495 6 1 C5.01 1.495 5.01 1.495 4 2 C4 2.66 4 3.32 4 4 C2.68 4.33 1.36 4.66 0 5 C0 7.31 0 9.62 0 12 C-0.66 12 -1.32 12 -2 12 C-2.28571429 3.42857143 -2.28571429 3.42857143 0 0 Z " fill="#E77D6D" transform="translate(163,240)"/>
<path d="M0 0 C-0.66 1.32 -1.32 2.64 -2 4 C-2.99 3.34 -3.98 2.68 -5 2 C-2 0 -2 0 0 0 Z M-5 3 C-5.33 3.99 -5.66 4.98 -6 6 C-6.66 6 -7.32 6 -8 6 C-8.33 6.66 -8.66 7.32 -9 8 C-11.0625 9.125 -11.0625 9.125 -13 10 C-12.8125 7.625 -12.8125 7.625 -12 5 C-9.54236535 3.67665827 -7.79402354 3 -5 3 Z " fill="#F1A395" transform="translate(407,152)"/>
<path d="M0 0 C2.375 0.25 2.375 0.25 5 1 C5.68486725 2.32407669 6.34870203 3.65909241 7 5 C8.98768394 6.35162508 10.9866347 7.68693567 13 9 C13 9.66 13 10.32 13 11 C9.66864109 10.40300869 7.78724333 9.27987719 5.25 7.0625 C4.63640625 6.53785156 4.0228125 6.01320313 3.390625 5.47265625 C2 4 2 4 2 2 C1.34 2 0.68 2 0 2 C0 1.34 0 0.68 0 0 Z " fill="#EBB4AD" transform="translate(216,273)"/>
<path d="M0 0 C1 3 1 3 0 6 C-0.99 6 -1.98 6 -3 6 C-2.67 6.99 -2.34 7.98 -2 9 C-4.375 10.5625 -4.375 10.5625 -7 12 C-7.66 11.67 -8.32 11.34 -9 11 C-6.03 7.37 -3.06 3.74 0 0 Z " fill="#E8A99F" transform="translate(355,198)"/>
<path d="M0 0 C2.25 0.25 2.25 0.25 4 1 C2.73058503 4.91402949 1.48832306 6.79072873 -2 9 C-2 7.68 -2 6.36 -2 5 C-2.66 4.67 -3.32 4.34 -4 4 C-2.25 1.9375 -2.25 1.9375 0 0 Z " fill="#EFB9AC" transform="translate(412,153)"/>
<path d="M0 0 C4.92908146 3.87792288 8.5423711 7.76116833 12 13 C10.02 13 8.04 13 6 13 C5.7525 11.9275 5.505 10.855 5.25 9.75 C3.98470426 5.95411278 2.8930687 4.60376183 0 2 C0 1.34 0 0.68 0 0 Z " fill="#EBB4AE" transform="translate(198,304)"/>
<path d="M0 0 C0.99 0 1.98 0 3 0 C4.23593891 3.70781672 3.5678132 4.67510253 2.0625 8.1875 C1.68222656 9.08855469 1.30195313 9.98960937 0.91015625 10.91796875 C0.45962891 11.94857422 0.45962891 11.94857422 0 13 C-0.33 13 -0.66 13 -1 13 C-0.67 8.71 -0.34 4.42 0 0 Z " fill="#EFB8AE" transform="translate(401,254)"/>
<path d="M0 0 C0.66 0.99 1.32 1.98 2 3 C-0.31 5.97 -2.62 8.94 -5 12 C-5.66 11.67 -6.32 11.34 -7 11 C-5.5140084 6.40693504 -3.14985318 3.56430755 0 0 Z " fill="#E7A69C" transform="translate(97,157)"/>
<path d="M0 0 C0.66 1.32 1.32 2.64 2 4 C0.71937515 5.7074998 -0.61767557 7.37373596 -2 9 C-2.66 9 -3.32 9 -4 9 C-4.33 9.99 -4.66 10.98 -5 12 C-6 9 -6 9 -6 6 C-5.195625 5.7525 -4.39125 5.505 -3.5625 5.25 C-0.828919 4.27761141 -0.828919 4.27761141 -0.1875 1.875 C-0.125625 1.25625 -0.06375 0.6375 0 0 Z " fill="#F2C0B9" transform="translate(424,141)"/>
<path d="M0 0 C0.99 0 1.98 0 3 0 C1.44396229 3.81936528 -0.95604931 6.26044438 -4 9 C-4.66 9 -5.32 9 -6 9 C-6 9.66 -6 10.32 -6 11 C-6.66 10.67 -7.32 10.34 -8 10 C-7.67 8.68 -7.34 7.36 -7 6 C-5.68 6 -4.36 6 -3 6 C-3.33 5.01 -3.66 4.02 -4 3 C-2.68 3 -1.36 3 0 3 C0 2.01 0 1.02 0 0 Z " fill="#F4CDC7" transform="translate(375,129)"/>
<path d="M0 0 C-1.0975223 2.99324263 -1.67682892 3.84610901 -4.625 5.25 C-5.40875 5.4975 -6.1925 5.745 -7 6 C-7 5.34 -7 4.68 -7 4 C-8.65 4 -10.3 4 -12 4 C-8.54145481 0.54145481 -4.78095787 0 0 0 Z " fill="#F2E1DC" transform="translate(439,78)"/>
<path d="M0 0 C0.66 0.66 1.32 1.32 2 2 C3.32 2 4.64 2 6 2 C5.67 3.32 5.34 4.64 5 6 C2.125 6.1875 2.125 6.1875 -1 6 C-1.66 5.01 -2.32 4.02 -3 3 C-2.01 2.01 -1.02 1.02 0 0 Z " fill="#E67868" transform="translate(211,322)"/>
<path d="M0 0 C0.33 1.32 0.66 2.64 1 4 C0.34 4 -0.32 4 -1 4 C-1.33 5.65 -1.66 7.3 -2 9 C-3.98 9.66 -5.96 10.32 -8 11 C-6.63629701 8.00779732 -5.05091917 5.70973471 -2.875 3.25 C-2.33617187 2.63640625 -1.79734375 2.0228125 -1.2421875 1.390625 C-0.62730469 0.70226562 -0.62730469 0.70226562 0 0 Z " fill="#ECB0AA" transform="translate(301,262)"/>
<path d="M0 0 C0.33 0 0.66 0 1 0 C1.19335938 0.66386719 1.38671875 1.32773437 1.5859375 2.01171875 C3.52751352 8.59789309 3.52751352 8.59789309 6 15 C3.03 14.505 3.03 14.505 0 14 C0 9.38 0 4.76 0 0 Z " fill="#E7A8A1" transform="translate(162,255)"/>
<path d="M0 0 C3.98671063 1.36687222 6.88494633 3.15195093 10 6 C10 6.66 10 7.32 10 8 C11.32 8.66 12.64 9.32 14 10 C10.87099787 10 9.62581138 9.57548683 7 8 C6.67 7.34 6.34 6.68 6 6 C5.175 5.525625 4.35 5.05125 3.5 4.5625 C1 3 1 3 0 0 Z " fill="#F3CAC3" transform="translate(211,145)"/>
<path d="M0 0 C1.65 0 3.3 0 5 0 C3.71034824 1.37562854 2.37310707 2.70766393 1 4 C0.34 4 -0.32 4 -1 4 C-1 4.66 -1 5.32 -1 6 C-2.98 6.66 -4.96 7.32 -7 8 C-6.8125 6.125 -6.8125 6.125 -6 4 C-3.5 2.875 -3.5 2.875 -1 2 C-0.67 1.34 -0.34 0.68 0 0 Z " fill="#ECACA7" transform="translate(268,403)"/>
<path d="M0 0 C0.53625 0.28875 1.0725 0.5775 1.625 0.875 C4.07550097 2.11988906 4.07550097 2.11988906 7.1875 2.875 C8.115625 3.24625 9.04375 3.6175 10 4 C10.75 6.0625 10.75 6.0625 11 8 C11.66 8.33 12.32 8.66 13 9 C12.01 9.495 12.01 9.495 11 10 C9.35063952 8.71284028 7.70560953 7.42012981 6.0625 6.125 C5.14597656 5.40570313 4.22945312 4.68640625 3.28515625 3.9453125 C1 2 1 2 0 0 Z " fill="#E9B0A5" transform="translate(194,389)"/>
<path d="M0 0 C0.93423645 3.01031744 1.04449911 3.86650268 0 7 C-0.99 7.33 -1.98 7.66 -3 8 C-3.33 8.66 -3.66 9.32 -4 10 C-4.99 10 -5.98 10 -7 10 C-5.79618552 7.50638429 -4.54571278 5.31856917 -3 3 C-2.34 3 -1.68 3 -1 3 C-0.67 2.01 -0.34 1.02 0 0 Z " fill="#E69F98" transform="translate(269,301)"/>
<path d="M0 0 C1.32 0.33 2.64 0.66 4 1 C4 1.66 4 2.32 4 3 C4.804375 3.2475 5.60875 3.495 6.4375 3.75 C9 5 9 5 9.8125 7.125 C9.874375 7.74375 9.93625 8.3625 10 9 C7 9 7 9 5.3125 7.625 C4 6 4 6 4 4 C3.34 4 2.68 4 2 4 C1.34 2.68 0.68 1.36 0 0 Z " fill="#EEBBB3" transform="translate(106,300)"/>
<path d="M0 0 C0.99 0 1.98 0 3 0 C2.875 2.25 2.875 2.25 2 5 C-1.0625 7.3125 -1.0625 7.3125 -4 9 C-4.33 8.01 -4.66 7.02 -5 6 C-2.75 2.8125 -2.75 2.8125 0 0 Z " fill="#EFB4AA" transform="translate(365,137)"/>
<path d="M0 0 C1.60725635 3.21451269 1.05748185 6.43612536 1 10 C0.01 9.67 -0.98 9.34 -2 9 C-1.67 10.98 -1.34 12.96 -1 15 C-3 14 -3 14 -4 11 C-3.4765625 8.5546875 -3.4765625 8.5546875 -2.625 5.875 C-2.34914063 4.98554688 -2.07328125 4.09609375 -1.7890625 3.1796875 C-1 1 -1 1 0 0 Z " fill="#E98579" transform="translate(86,177)"/>
<path d="M0 0 C0 0.66 0 1.32 0 2 C-0.66 2 -1.32 2 -2 2 C-2.2475 2.598125 -2.495 3.19625 -2.75 3.8125 C-4.16370012 6.28647521 -5.65055383 7.43370255 -8 9 C-8.3125 6.75 -8.3125 6.75 -8 4 C-5.22028536 1.22028536 -3.98855034 0 0 0 Z " fill="#ECB6B0" transform="translate(336,172)"/>
<path d="M0 0 C2.31 0.33 4.62 0.66 7 1 C7.33 3.31 7.66 5.62 8 8 C7.34 8 6.68 8 6 8 C6 7.34 6 6.68 6 6 C5.34 6 4.68 6 4 6 C4 5.34 4 4.68 4 4 C3.34 4 2.68 4 2 4 C1.34 2.68 0.68 1.36 0 0 Z " fill="#EAA49F" transform="translate(208,265)"/>
<path d="M0 0 C1.7074998 1.28062485 3.37373596 2.61767557 5 4 C5 4.66 5 5.32 5 6 C5.99 5.67 6.98 5.34 8 5 C8 6.32 8 7.64 8 9 C6.68 9 5.36 9 4 9 C3.67 7.35 3.34 5.7 3 4 C2.34 4 1.68 4 1 4 C0.67 4.66 0.34 5.32 0 6 C0 4.02 0 2.04 0 0 Z " fill="#F3C0B9" transform="translate(236,168)"/>
<path d="M0 0 C6.6 0 13.2 0 20 0 C16.21695837 2.52202776 14.03244092 3.18157104 9.625 2.625 C8.83480469 2.52574219 8.04460937 2.42648438 7.23046875 2.32421875 C4.79837656 1.97069221 2.39752363 1.5413763 0 1 C0 0.67 0 0.34 0 0 Z " fill="#E49A8C" transform="translate(154,131)"/>
<path d="M0 0 C1.32 0 2.64 0 4 0 C3.67 1.32 3.34 2.64 3 4 C2.34 4 1.68 4 1 4 C1 4.99 1 5.98 1 7 C-0.65 7.33 -2.3 7.66 -4 8 C-4.33 7.01 -4.66 6.02 -5 5 C-3.68 4.67 -2.36 4.34 -1 4 C-0.67 2.68 -0.34 1.36 0 0 Z " fill="#F5A192" transform="translate(377,292)"/>
<path d="M0 0 C0.33 0 0.66 0 1 0 C1.38614349 6.8218683 0.00865708 12.49577707 -2 19 C-2.33 19 -2.66 19 -3 19 C-2.58955515 12.42208127 -2.13391403 6.25948114 0 0 Z " fill="#F2D1CB" transform="translate(408,234)"/>
<path d="M0 0 C0.33 0.99 0.66 1.98 1 3 C0.67 3.66 0.34 4.32 0 5 C-0.99 5 -1.98 5 -3 5 C-3.33 6.65 -3.66 8.3 -4 10 C-4.99 10.33 -5.98 10.66 -7 11 C-6.67 9.35 -6.34 7.7 -6 6 C-5.34 6 -4.68 6 -4 6 C-3.71125 5.38125 -3.4225 4.7625 -3.125 4.125 C-2 2 -2 2 0 0 Z " fill="#EBB5AD" transform="translate(345,210)"/>
<path d="M0 0 C0.99 0.33 1.98 0.66 3 1 C0.62176166 5.84455959 0.62176166 5.84455959 -1 8 C-3.75 8.9375 -3.75 8.9375 -6 9 C-6 8.34 -6 7.68 -6 7 C-5.34 7 -4.68 7 -4 7 C-3.71125 6.401875 -3.4225 5.80375 -3.125 5.1875 C-2 3 -2 3 0 0 Z " fill="#F0C0B6" transform="translate(250,164)"/>
<path d="M0 0 C0.99 0 1.98 0 3 0 C3 3 3 3 1.25 4.82421875 C0.5075 5.43910156 -0.235 6.05398438 -1 6.6875 C-1.7425 7.31011719 -2.485 7.93273437 -3.25 8.57421875 C-3.8275 9.04472656 -4.405 9.51523437 -5 10 C-5.33 9.01 -5.66 8.02 -6 7 C-5.34 7 -4.68 7 -4 7 C-3.71125 6.401875 -3.4225 5.80375 -3.125 5.1875 C-2 3 -2 3 0 0 Z " fill="#EAACA5" transform="translate(300,376)"/>
<path d="M0 0 C0.66 0.33 1.32 0.66 2 1 C-0.05233685 3.2477975 -1.00667261 4.0022242 -4 5 C-6.06145107 5.068991 -8.12501401 5.08467727 -10.1875 5.0625 C-11.81751953 5.04896484 -11.81751953 5.04896484 -13.48046875 5.03515625 C-14.31191406 5.02355469 -15.14335937 5.01195312 -16 5 C-16 4.67 -16 4.34 -16 4 C-12.37 4 -8.74 4 -5 4 C-5 3.34 -5 2.68 -5 2 C-2.625 0.9375 -2.625 0.9375 0 0 Z " fill="#DD786E" transform="translate(245,332)"/>
<path d="M0 0 C1.65 0 3.3 0 5 0 C3.375 5.75 3.375 5.75 0 8 C-0.98120464 4.94736336 -0.98120464 3.05263664 0 0 Z " fill="#F0A49C" transform="translate(345,328)"/>
<path d="M0 0 C0.33 0.99 0.66 1.98 1 3 C1.66 3 2.32 3 3 3 C2.67 4.65 2.34 6.3 2 8 C0.33333333 8 -1.33333333 8 -3 8 C-3 4 -3 4 -1 2 C-0.67 1.34 -0.34 0.68 0 0 Z " fill="#E7796D" transform="translate(285,283)"/>
<path d="M0 0 C0.66 0.66 1.32 1.32 2 2 C2.66 2.33 3.32 2.66 4 3 C1.69 4.98 -0.62 6.96 -3 9 C-4.24546405 6.50907189 -3.7767578 5.58919267 -3 3 C-2.34 3 -1.68 3 -1 3 C-0.67 2.01 -0.34 1.02 0 0 Z " fill="#E79087" transform="translate(292,273)"/>
<path d="M0 0 C0.99 0.33 1.98 0.66 3 1 C1.19587357 4.26460973 0.16605307 5.88929795 -3 8 C-3.99 7.67 -4.98 7.34 -6 7 C-5.34 6.01 -4.68 5.02 -4 4 C-3.34 4 -2.68 4 -2 4 C-1.34 2.68 -0.68 1.36 0 0 Z " fill="#E8A8A1" transform="translate(332,225)"/>
<path d="M0 0 C0.66 0.33 1.32 0.66 2 1 C-0.21689838 5.43379675 -2.77728219 7.46636932 -7 10 C-7.66 9.67 -8.32 9.34 -9 9 C-6 6 -3 3 0 0 Z " fill="#EBC0B6" transform="translate(107,147)"/>
<path d="M0 0 C-0.125 1.875 -0.125 1.875 -1 4 C-4.78661425 5.76708665 -7.04865524 6.1914033 -11 5 C-9.54462432 4.16151196 -8.08559627 3.32936066 -6.625 2.5 C-5.81289063 2.0359375 -5.00078125 1.571875 -4.1640625 1.09375 C-2 0 -2 0 0 0 Z " fill="#F3CCC6" transform="translate(407,91)"/>
<path d="M0 0 C1.32 0 2.64 0 4 0 C4 1.98 4 3.96 4 6 C3.01 6.495 3.01 6.495 2 7 C1.01 6.34 0.02 5.68 -1 5 C-0.67 3.35 -0.34 1.7 0 0 Z " fill="#EE9B8C" transform="translate(116,304)"/>
<path d="M0 0 C0.33 0.66 0.66 1.32 1 2 C1.66 2.33 2.32 2.66 3 3 C-1.625 7 -1.625 7 -5 7 C-4.60196439 4.11424181 -4.20990931 3.17810487 -1.9375 1.25 C-1.298125 0.8375 -0.65875 0.425 0 0 Z " fill="#E87465" transform="translate(277,297)"/>
<path d="M0 0 C0.99 0.33 1.98 0.66 3 1 C3 1.66 3 2.32 3 3 C2.34 3 1.68 3 1 3 C0.34 4.32 -0.32 5.64 -1 7 C-1.99 7 -2.98 7 -4 7 C-3.39816251 4.97954558 -2.72693904 2.97888961 -2 1 C-1.34 0.67 -0.68 0.34 0 0 Z " fill="#F0B6AE" transform="translate(251,264)"/>
<path d="M0 0 C1.9375 0.625 1.9375 0.625 4 2 C4.75 5.125 4.75 5.125 5 8 C4.34 6.68 3.68 5.36 3 4 C1.02 4.99 1.02 4.99 -1 6 C-1.33 4.68 -1.66 3.36 -2 2 C-1.34 2 -0.68 2 0 2 C0 1.34 0 0.68 0 0 Z " fill="#EF9D8D" transform="translate(220,154)"/>
<path d="M0 0 C0.33 0.99 0.66 1.98 1 3 C-2.65333143 5.63379708 -5.48521602 7.46884894 -10 8 C-7.76027739 4.46359588 -5.89201944 3.39713518 -2 2 C-1.34 1.34 -0.68 0.68 0 0 Z " fill="#EEBEB5" transform="translate(405,149)"/>
<path d="M0 0 C-1.26457031 0.52400391 -1.26457031 0.52400391 -2.5546875 1.05859375 C-3.65039062 1.51363281 -4.74609375 1.96867188 -5.875 2.4375 C-6.96554688 2.88996094 -8.05609375 3.34242188 -9.1796875 3.80859375 C-10.80558624 4.49543463 -12.42131774 5.21065887 -14 6 C-14.66 5.34 -15.32 4.68 -16 4 C-13.90049414 3.13444052 -11.7952093 2.28288723 -9.6875 1.4375 C-8.51574219 0.96183594 -7.34398437 0.48617187 -6.13671875 -0.00390625 C-3 -1 -3 -1 0 0 Z " fill="#F1C9C3" transform="translate(140,133)"/>
<path d="M0 0 C0.99 0.33 1.98 0.66 3 1 C2.34 1 1.68 1 1 1 C1 1.66 1 2.32 1 3 C-4.41176471 7 -4.41176471 7 -7 7 C-6.8125 5.125 -6.8125 5.125 -6 3 C-3.5 1.8125 -3.5 1.8125 -1 1 C-0.67 0.67 -0.34 0.34 0 0 Z M-9 7 C-7 8 -7 8 -7 8 Z " fill="#EFAAA1" transform="translate(413,88)"/>
<path d="M0 0 C6.47511312 1.3438914 6.47511312 1.3438914 9 4.5 C9.33 5.325 9.66 6.15 10 7 C9.67 7.66 9.34 8.32 9 9 C7.49704815 7.69088122 5.99770689 6.37761608 4.5 5.0625 C3.6646875 4.33160156 2.829375 3.60070312 1.96875 2.84765625 C1.3190625 2.23792969 0.669375 1.62820313 0 1 C0 0.67 0 0.34 0 0 Z " fill="#DD867E" transform="translate(165,361)"/>
<path d="M0 0 C1 2 1 2 0.9375 4.375 C-0.38361077 8.07411016 -2.67803906 9.09163946 -6 11 C-4.54955729 6.89041233 -2.48889248 3.56741255 0 0 Z " fill="#EFC2BD" transform="translate(90,166)"/>
<path d="M0 0 C0.99 0.33 1.98 0.66 3 1 C0.03 3.64 -2.94 6.28 -6 9 C-6.66 8.67 -7.32 8.34 -8 8 C-7.04578192 6.85073734 -6.08647955 5.70569459 -5.125 4.5625 C-4.59132813 3.92441406 -4.05765625 3.28632813 -3.5078125 2.62890625 C-2 1 -2 1 0 0 Z " fill="#ED9C8E" transform="translate(270,148)"/>
<path d="M0 0 C0.99 0.33 1.98 0.66 3 1 C2.25 5.75 2.25 5.75 0 8 C-0.66 6.02 -1.32 4.04 -2 2 C-1.34 1.34 -0.68 0.68 0 0 Z " fill="#EFB4AC" transform="translate(436,124)"/>
<path d="M0 0 C2.96404505 2.80804268 5.44499019 5.18315774 7 9 C5.35 8.67 3.7 8.34 2 8 C2 6.68 2 5.36 2 4 C1.34 4 0.68 4 0 4 C0 2.68 0 1.36 0 0 Z " fill="#E9B4AD" transform="translate(176,279)"/>
<path d="M0 0 C0 2.71929057 -0.05620165 4.4832044 -1 7 C-3.0625 8.75 -3.0625 8.75 -5 10 C-5.66 9.67 -6.32 9.34 -7 9 C-4.69 6.03 -2.38 3.06 0 0 Z " fill="#E8B8B2" transform="translate(309,252)"/>
<path d="M0 0 C0.66 0.33 1.32 0.66 2 1 C2 1.66 2 2.32 2 3 C1.34 3 0.68 3 0 3 C0 3.66 0 4.32 0 5 C0.66 5.33 1.32 5.66 2 6 C0.68 6.33 -0.64 6.66 -2 7 C-2.33 5.35 -2.66 3.7 -3 2 C-2.01 1.34 -1.02 0.68 0 0 Z " fill="#F29788" transform="translate(278,144)"/>
<path d="M0 0 C0.33 0.66 0.66 1.32 1 2 C-0.76237521 5.03520175 -1.61659622 5.89045606 -5.0625 6.875 C-6.031875 6.91625 -7.00125 6.9575 -8 7 C-8.66 6.34 -9.32 5.68 -10 5 C-8.02 5 -6.04 5 -4 5 C-4 4.34 -4 3.68 -4 3 C-2 1.375 -2 1.375 0 0 Z " fill="#F4CCC5" transform="translate(354,127)"/>
<path d="M0 0 C0.66 0.33 1.32 0.66 2 1 C1.4375 2.9375 1.4375 2.9375 0 5 C-3.625 5.75 -3.625 5.75 -7 6 C-4.74259377 3.66475218 -2.7194239 1.81294927 0 0 Z " fill="#EDC1B6" transform="translate(275,143)"/>
<path d="M0 0 C2.31 0.66 4.62 1.32 7 2 C7 2.99 7 3.98 7 5 C4.625 4.75 4.625 4.75 2 4 C0.6875 1.9375 0.6875 1.9375 0 0 Z " fill="#EEB3AD" transform="translate(200,139)"/>
<path d="M0 0 C4.21878192 -0.19622241 7.17010894 0.19769832 11 2 C10.01 2.66 9.02 3.32 8 4 C4.56816682 3.15955106 2.51471866 2.51471866 0 0 Z " fill="#E6A295" transform="translate(338,132)"/>
<path d="M0 0 C0.66 0.33 1.32 0.66 2 1 C-2.30769231 6.78461538 -2.30769231 6.78461538 -5.8125 7.875 C-6.8953125 7.936875 -6.8953125 7.936875 -8 8 C-7.67 7.34 -7.34 6.68 -7 6 C-6.34 6 -5.68 6 -5 6 C-5 5.34 -5 4.68 -5 4 C-3.37373596 2.61767557 -1.7074998 1.28062485 0 0 Z " fill="#F4CDC5" transform="translate(363,119)"/>
<path d="M0 0 C-0.33 1.32 -0.66 2.64 -1 4 C-1.66 4 -2.32 4 -3 4 C-3 4.66 -3 5.32 -3 6 C-4.65 5.67 -6.3 5.34 -8 5 C-3.16129032 0 -3.16129032 0 0 0 Z " fill="#F3E4E0" transform="translate(449,116)"/>
<path d="M0 0 C0.66 0.33 1.32 0.66 2 1 C-0.23407889 4.35111834 -1.26215824 5.81553956 -5.25 6.8125 C-6.61125 6.9053125 -6.61125 6.9053125 -8 7 C-5.4837822 4.39391727 -2.94865641 2.10618315 0 0 Z " fill="#F3CEC6" transform="translate(373,111)"/>
<path d="M0 0 C1.98 0.66 3.96 1.32 6 2 C5.67 2.99 5.34 3.98 5 5 C3.02 4.34 1.04 3.68 -1 3 C-0.67 2.01 -0.34 1.02 0 0 Z " fill="#EE7D72" transform="translate(166,358)"/>
<path d="M0 0 C0 3.21534057 -0.26476072 4.35582586 -2 7 C-4.625 8.75 -4.625 8.75 -7 10 C-6 8 -5 6 -4 4 C-3.34 4 -2.68 4 -2 4 C-1.34 2.68 -0.68 1.36 0 0 Z " fill="#F0C4BD" transform="translate(261,311)"/>
<path d="M0 0 C0 3.64478912 -0.85802506 5.09303401 -3 8 C-5.1875 8.8125 -5.1875 8.8125 -7 9 C-6.34 7.68 -5.68 6.36 -5 5 C-4.34 5 -3.68 5 -3 5 C-2.690625 4.360625 -2.38125 3.72125 -2.0625 3.0625 C-1 1 -1 1 0 0 Z " fill="#EBBAB3" transform="translate(322,237)"/>
<path d="M0 0 C1.32 0.66 2.64 1.32 4 2 C0.535 4.97 0.535 4.97 -3 8 C-2.67 6.35 -2.34 4.7 -2 3 C-1.01 3 -0.02 3 1 3 C0.67 2.01 0.34 1.02 0 0 Z " fill="#EAB8AB" transform="translate(317,188)"/>
<path d="M0 0 C0.66 0.33 1.32 0.66 2 1 C1.360625 1.598125 0.72125 2.19625 0.0625 2.8125 C-2.20310389 4.90810337 -2.20310389 4.90810337 -3 8 C-5.0625 8.6875 -5.0625 8.6875 -7 9 C-5.44499019 5.18315774 -2.96404505 2.80804268 0 0 Z " fill="#F6D7D0" transform="translate(259,155)"/>
<path d="M0 0 C1.32 0.66 2.64 1.32 4 2 C3.67 2.66 3.34 3.32 3 4 C2.01 4.33 1.02 4.66 0 5 C-0.66 5.99 -1.32 6.98 -2 8 C-2.6875 5.6875 -2.6875 5.6875 -3 3 C-1.5625 1.1875 -1.5625 1.1875 0 0 Z " fill="#F39E91" transform="translate(355,144)"/>
<path d="M0 0 C0.66 0.33 1.32 0.66 2 1 C0.10595266 4.34243648 -0.94091591 4.97997149 -4.6875 6.25 C-6.3271875 6.62125 -6.3271875 6.62125 -8 7 C-5.42215154 4.35247996 -3.08351902 2.05567935 0 0 Z " fill="#F7D7D2" transform="translate(383,104)"/>
<path d="M0 0 C0 0.99 0 1.98 0 3 C-1.98 3 -3.96 3 -6 3 C-6.33 2.34 -6.66 1.68 -7 1 C-4.53721199 -0.231394 -2.7204945 -0.07159196 0 0 Z " fill="#EC7B6E" transform="translate(220,402)"/>
<path d="M0 0 C0.99 0 1.98 0 3 0 C3 0.66 3 1.32 3 2 C3.99 2.33 4.98 2.66 6 3 C5.67 4.32 5.34 5.64 5 7 C3.5 5.625 3.5 5.625 2 4 C2 3.34 2 2.68 2 2 C1.34 2 0.68 2 0 2 C0 1.34 0 0.68 0 0 Z " fill="#EEBEB7" transform="translate(115,310)"/>
<path d="M0 0 C0 1.65 0 3.3 0 5 C-1.65 4.67 -3.3 4.34 -5 4 C-4.67 3.01 -4.34 2.02 -4 1 C-1 0 -1 0 0 0 Z " fill="#E77866" transform="translate(270,307)"/>
<path d="M0 0 C2.5 2.3125 2.5 2.3125 5 5 C5 5.99 5 6.98 5 8 C3.0625 7.375 3.0625 7.375 1 6 C0.25 2.875 0.25 2.875 0 0 Z " fill="#EAAEA9" transform="translate(170,272)"/>
<path d="M0 0 C0.99 0.33 1.98 0.66 3 1 C3 1.99 3 2.98 3 4 C1.68 3.67 0.36 3.34 -1 3 C-1.33 3.99 -1.66 4.98 -2 6 C-2.33 4.68 -2.66 3.36 -3 2 C-2.01 1.34 -1.02 0.68 0 0 Z " fill="#E98277" transform="translate(305,260)"/>
<path d="M0 0 C0.66 0.66 1.32 1.32 2 2 C0.35 3.98 -1.3 5.96 -3 8 C-3.33 6.68 -3.66 5.36 -4 4 C-3.34 4 -2.68 4 -2 4 C-1.67 3.01 -1.34 2.02 -1 1 C-0.67 0.67 -0.34 0.34 0 0 Z " fill="#EAB7AD" transform="translate(258,257)"/>
<path d="M0 0 C1.32 0 2.64 0 4 0 C3.34 1.65 2.68 3.3 2 5 C0.68 4.34 -0.64 3.68 -2 3 C-1.34 2.01 -0.68 1.02 0 0 Z " fill="#EE9B96" transform="translate(314,246)"/>
<path d="M0 0 C1.32 0.33 2.64 0.66 4 1 C4 2.32 4 3.64 4 5 C3.01 5.33 2.02 5.66 1 6 C0 5 0 5 -0.0625 2.4375 C-0.041875 1.633125 -0.02125 0.82875 0 0 Z " fill="#E88776" transform="translate(346,210)"/>
<path d="M0 0 C0.99 0.33 1.98 0.66 3 1 C1.70700306 3.88437779 0.34058637 5.87219421 -2 8 C-1.125 1.125 -1.125 1.125 0 0 Z " fill="#F3BEB6" transform="translate(406,162)"/>
<path d="M0 0 C0.99 0.33 1.98 0.66 3 1 C-0.465 3.97 -0.465 3.97 -4 7 C-4 6.01 -4 5.02 -4 4 C-3.34 4 -2.68 4 -2 4 C-2 3.01 -2 2.02 -2 1 C-1.34 0.67 -0.68 0.34 0 0 Z " fill="#EDABA4" transform="translate(342,336)"/>
<path d="M0 0 C2 1.1875 2 1.1875 4 3 C4.25 5.6875 4.25 5.6875 4 8 C2 6.8125 2 6.8125 0 5 C-0.25 2.3125 -0.25 2.3125 0 0 Z " fill="#E39289" transform="translate(217,324)"/>
<path d="M0 0 C0 3 0 3 -1.3125 4.38671875 C-2.875 5.59114583 -4.4375 6.79557292 -6 8 C-6 7.01 -6 6.02 -6 5 C-5.34 5 -4.68 5 -4 5 C-4 4.01 -4 3.02 -4 2 C-2.68 1.34 -1.36 0.68 0 0 Z " fill="#F2D1C8" transform="translate(370,308)"/>
<path d="M0 0 C2.475 0.495 2.475 0.495 5 1 C5.33 1.99 5.66 2.98 6 4 C4.35 4.33 2.7 4.66 1 5 C0.67 3.35 0.34 1.7 0 0 Z " fill="#EB7A71" transform="translate(161,268)"/>
<path d="M0 0 C1.32 0.33 2.64 0.66 4 1 C3.34 1 2.68 1 2 1 C1.67 2.65 1.34 4.3 1 6 C0.01 5.67 -0.98 5.34 -2 5 C-1.34 3.35 -0.68 1.7 0 0 Z " fill="#ED9A91" transform="translate(252,260)"/>
<path d="M0 0 C1.65 0.33 3.3 0.66 5 1 C4.67 1.99 4.34 2.98 4 4 C2.35 3.67 0.7 3.34 -1 3 C-0.67 2.01 -0.34 1.02 0 0 Z " fill="#ED8476" transform="translate(339,220)"/>
<path d="M0 0 C4.75 0.75 4.75 0.75 7 3 C5.35 3.33 3.7 3.66 2 4 C1.34 2.68 0.68 1.36 0 0 Z " fill="#EBB0A5" transform="translate(193,136)"/>
<path d="M0 0 C2.64 0 5.28 0 8 0 C6.25 1.5625 6.25 1.5625 4 3 C1.75 2.6875 1.75 2.6875 0 2 C0 1.34 0 0.68 0 0 Z " fill="#EDABA7" transform="translate(252,412)"/>
<path d="M0 0 C1.98 0.495 1.98 0.495 4 1 C2.35 2.65 0.7 4.3 -1 6 C-0.67 4.02 -0.34 2.04 0 0 Z " fill="#E9B3A9" transform="translate(284,225)"/>
<path d="M0 0 C1 3 1 3 0 6 C-1.65 6.33 -3.3 6.66 -5 7 C-3.35 4.69 -1.7 2.38 0 0 Z " fill="#ECB2AD" transform="translate(355,198)"/>
<path d="M0 0 C0.33 1.32 0.66 2.64 1 4 C-0.32 4.99 -1.64 5.98 -3 7 C-3.66 6.67 -4.32 6.34 -5 6 C-3.35 4.02 -1.7 2.04 0 0 Z " fill="#EFC6BF" transform="translate(365,187)"/>
<path d="M0 0 C0.33 0 0.66 0 1 0 C1 1.98 1 3.96 1 6 C-0.32 6.33 -1.64 6.66 -3 7 C-2.25 2.25 -2.25 2.25 0 0 Z " fill="#EC9D91" transform="translate(398,173)"/>
<path d="M0 0 C3.16115776 1.36983503 3.9927092 1.9890638 6 5 C4.35 5 2.7 5 1 5 C0.67 3.35 0.34 1.7 0 0 Z " fill="#EDBAAF" transform="translate(224,156)"/>
<path d="M0 0 C-1.0625 1.5 -1.0625 1.5 -3 3 C-6.6875 3.1875 -6.6875 3.1875 -10 3 C-6.88378718 -0.11621282 -4.21175599 -0.11383124 0 0 Z " fill="#EC9D90" transform="translate(300,135)"/>
</svg>
